<?xml version="1.0" encoding="utf-8"?>
<svg xmlns="http://www.w3.org/2000/svg" xmlns:xlink="http://www.w3.org/1999/xlink" width="600" height="400" viewBox="0 0 2400 1600">
<defs>
  <clipPath id="clip310">
    <rect x="0" y="0" width="2400" height="1600"/>
  </clipPath>
</defs>
<path clip-path="url(#clip310)" d="
M0 1600 L2400 1600 L2400 0 L0 0  Z
  " fill="#ffffff" fill-rule="evenodd" fill-opacity="1"/>
<defs>
  <clipPath id="clip311">
    <rect x="480" y="0" width="1681" height="1600"/>
  </clipPath>
</defs>
<path clip-path="url(#clip310)" d="
M193.936 1486.45 L2352.76 1486.45 L2352.76 123.472 L193.936 123.472  Z
  " fill="#ffffff" fill-rule="evenodd" fill-opacity="1"/>
<defs>
  <clipPath id="clip312">
    <rect x="193" y="123" width="2160" height="1364"/>
  </clipPath>
</defs>
<polyline clip-path="url(#clip312)" style="stroke:#000000; stroke-linecap:butt; stroke-linejoin:round; stroke-width:2; stroke-opacity:0.1; fill:none" points="
  246.549,1486.45 246.549,123.472 
  "/>
<polyline clip-path="url(#clip312)" style="stroke:#000000; stroke-linecap:butt; stroke-linejoin:round; stroke-width:2; stroke-opacity:0.1; fill:none" points="
  670.845,1486.45 670.845,123.472 
  "/>
<polyline clip-path="url(#clip312)" style="stroke:#000000; stroke-linecap:butt; stroke-linejoin:round; stroke-width:2; stroke-opacity:0.1; fill:none" points="
  1095.14,1486.45 1095.14,123.472 
  "/>
<polyline clip-path="url(#clip312)" style="stroke:#000000; stroke-linecap:butt; stroke-linejoin:round; stroke-width:2; stroke-opacity:0.1; fill:none" points="
  1519.44,1486.45 1519.44,123.472 
  "/>
<polyline clip-path="url(#clip312)" style="stroke:#000000; stroke-linecap:butt; stroke-linejoin:round; stroke-width:2; stroke-opacity:0.1; fill:none" points="
  1943.73,1486.45 1943.73,123.472 
  "/>
<polyline clip-path="url(#clip310)" style="stroke:#000000; stroke-linecap:butt; stroke-linejoin:round; stroke-width:4; stroke-opacity:1; fill:none" points="
  193.936,1486.45 2352.76,1486.45 
  "/>
<polyline clip-path="url(#clip310)" style="stroke:#000000; stroke-linecap:butt; stroke-linejoin:round; stroke-width:4; stroke-opacity:1; fill:none" points="
  193.936,123.472 2352.76,123.472 
  "/>
<polyline clip-path="url(#clip310)" style="stroke:#000000; stroke-linecap:butt; stroke-linejoin:round; stroke-width:4; stroke-opacity:1; fill:none" points="
  246.549,1486.45 246.549,1467.55 
  "/>
<polyline clip-path="url(#clip310)" style="stroke:#000000; stroke-linecap:butt; stroke-linejoin:round; stroke-width:4; stroke-opacity:1; fill:none" points="
  670.845,1486.45 670.845,1467.55 
  "/>
<polyline clip-path="url(#clip310)" style="stroke:#000000; stroke-linecap:butt; stroke-linejoin:round; stroke-width:4; stroke-opacity:1; fill:none" points="
  1095.14,1486.45 1095.14,1467.55 
  "/>
<polyline clip-path="url(#clip310)" style="stroke:#000000; stroke-linecap:butt; stroke-linejoin:round; stroke-width:4; stroke-opacity:1; fill:none" points="
  1519.44,1486.45 1519.44,1467.55 
  "/>
<polyline clip-path="url(#clip310)" style="stroke:#000000; stroke-linecap:butt; stroke-linejoin:round; stroke-width:4; stroke-opacity:1; fill:none" points="
  1943.73,1486.45 1943.73,1467.55 
  "/>
<path clip-path="url(#clip310)" d="M114.258 1544.91 L121.897 1544.91 L121.897 1518.55 L113.586 1520.21 L113.586 1515.95 L121.85 1514.29 L126.526 1514.29 L126.526 1544.91 L134.165 1544.91 L134.165 1548.85 L114.258 1548.85 L114.258 1544.91 Z" fill="#000000" fill-rule="evenodd" fill-opacity="1" /><path clip-path="url(#clip310)" d="M143.748 1548.13 L143.748 1543.87 Q145.508 1544.7 147.313 1545.14 Q149.119 1545.58 150.855 1545.58 Q155.484 1545.58 157.915 1542.48 Q160.369 1539.36 160.716 1533.01 Q159.373 1535.01 157.313 1536.07 Q155.253 1537.13 152.753 1537.13 Q147.568 1537.13 144.535 1534.01 Q141.526 1530.86 141.526 1525.42 Q141.526 1520.1 144.674 1516.88 Q147.822 1513.66 153.054 1513.66 Q159.049 1513.66 162.197 1518.27 Q165.369 1522.85 165.369 1531.6 Q165.369 1539.77 161.48 1544.66 Q157.614 1549.52 151.063 1549.52 Q149.304 1549.52 147.498 1549.17 Q145.693 1548.82 143.748 1548.13 M153.054 1533.48 Q156.202 1533.48 158.031 1531.32 Q159.883 1529.17 159.883 1525.42 Q159.883 1521.7 158.031 1519.54 Q156.202 1517.37 153.054 1517.37 Q149.906 1517.37 148.054 1519.54 Q146.225 1521.7 146.225 1525.42 Q146.225 1529.17 148.054 1531.32 Q149.906 1533.48 153.054 1533.48 Z" fill="#000000" fill-rule="evenodd" fill-opacity="1" /><path clip-path="url(#clip310)" d="M184.35 1529.7 Q181.202 1529.7 179.35 1531.86 Q177.521 1534.01 177.521 1537.76 Q177.521 1541.49 179.35 1543.66 Q181.202 1545.82 184.35 1545.82 Q187.498 1545.82 189.327 1543.66 Q191.179 1541.49 191.179 1537.76 Q191.179 1534.01 189.327 1531.86 Q187.498 1529.7 184.35 1529.7 M193.632 1515.05 L193.632 1519.31 Q191.873 1518.48 190.068 1518.04 Q188.285 1517.6 186.526 1517.6 Q181.896 1517.6 179.443 1520.72 Q177.012 1523.85 176.665 1530.17 Q178.031 1528.15 180.091 1527.09 Q182.151 1526 184.628 1526 Q189.836 1526 192.845 1529.17 Q195.878 1532.32 195.878 1537.76 Q195.878 1543.08 192.73 1546.3 Q189.581 1549.52 184.35 1549.52 Q178.355 1549.52 175.183 1544.94 Q172.012 1540.33 172.012 1531.6 Q172.012 1523.41 175.901 1518.55 Q179.79 1513.66 186.341 1513.66 Q188.1 1513.66 189.882 1514.01 Q191.688 1514.36 193.632 1515.05 Z" fill="#000000" fill-rule="evenodd" fill-opacity="1" /><path clip-path="url(#clip310)" d="M213.933 1517.37 Q210.322 1517.37 208.493 1520.93 Q206.688 1524.47 206.688 1531.6 Q206.688 1538.71 208.493 1542.27 Q210.322 1545.82 213.933 1545.82 Q217.567 1545.82 219.373 1542.27 Q221.202 1538.71 221.202 1531.6 Q221.202 1524.47 219.373 1520.93 Q217.567 1517.37 213.933 1517.37 M213.933 1513.66 Q219.743 1513.66 222.799 1518.27 Q225.878 1522.85 225.878 1531.6 Q225.878 1540.33 222.799 1544.94 Q219.743 1549.52 213.933 1549.52 Q208.123 1549.52 205.044 1544.94 Q201.989 1540.33 201.989 1531.6 Q201.989 1522.85 205.044 1518.27 Q208.123 1513.66 213.933 1513.66 Z" fill="#000000" fill-rule="evenodd" fill-opacity="1" /><path clip-path="url(#clip310)" d="M231.34 1533.96 L243.817 1533.96 L243.817 1537.76 L231.34 1537.76 L231.34 1533.96 Z" fill="#000000" fill-rule="evenodd" fill-opacity="1" /><path clip-path="url(#clip310)" d="M261.201 1517.37 Q257.59 1517.37 255.762 1520.93 Q253.956 1524.47 253.956 1531.6 Q253.956 1538.71 255.762 1542.27 Q257.59 1545.82 261.201 1545.82 Q264.836 1545.82 266.641 1542.27 Q268.47 1538.71 268.47 1531.6 Q268.47 1524.47 266.641 1520.93 Q264.836 1517.37 261.201 1517.37 M261.201 1513.66 Q267.012 1513.66 270.067 1518.27 Q273.146 1522.85 273.146 1531.6 Q273.146 1540.33 270.067 1544.94 Q267.012 1549.52 261.201 1549.52 Q255.391 1549.52 252.313 1544.94 Q249.257 1540.33 249.257 1531.6 Q249.257 1522.85 252.313 1518.27 Q255.391 1513.66 261.201 1513.66 Z" fill="#000000" fill-rule="evenodd" fill-opacity="1" /><path clip-path="url(#clip310)" d="M282.174 1544.91 L289.812 1544.91 L289.812 1518.55 L281.502 1520.21 L281.502 1515.95 L289.766 1514.29 L294.442 1514.29 L294.442 1544.91 L302.081 1544.91 L302.081 1548.85 L282.174 1548.85 L282.174 1544.91 Z" fill="#000000" fill-rule="evenodd" fill-opacity="1" /><path clip-path="url(#clip310)" d="M308.771 1533.96 L321.247 1533.96 L321.247 1537.76 L308.771 1537.76 L308.771 1533.96 Z" fill="#000000" fill-rule="evenodd" fill-opacity="1" /><path clip-path="url(#clip310)" d="M338.632 1517.37 Q335.02 1517.37 333.192 1520.93 Q331.386 1524.47 331.386 1531.6 Q331.386 1538.71 333.192 1542.27 Q335.02 1545.82 338.632 1545.82 Q342.266 1545.82 344.071 1542.27 Q345.9 1538.71 345.9 1531.6 Q345.9 1524.47 344.071 1520.93 Q342.266 1517.37 338.632 1517.37 M338.632 1513.66 Q344.442 1513.66 347.497 1518.27 Q350.576 1522.85 350.576 1531.6 Q350.576 1540.33 347.497 1544.94 Q344.442 1549.52 338.632 1549.52 Q332.821 1549.52 329.743 1544.94 Q326.687 1540.33 326.687 1531.6 Q326.687 1522.85 329.743 1518.27 Q332.821 1513.66 338.632 1513.66 Z" fill="#000000" fill-rule="evenodd" fill-opacity="1" /><path clip-path="url(#clip310)" d="M359.604 1544.91 L367.243 1544.91 L367.243 1518.55 L358.932 1520.21 L358.932 1515.95 L367.196 1514.29 L371.872 1514.29 L371.872 1544.91 L379.511 1544.91 L379.511 1548.85 L359.604 1548.85 L359.604 1544.91 Z" fill="#000000" fill-rule="evenodd" fill-opacity="1" /><path clip-path="url(#clip310)" d="M538.554 1544.91 L546.193 1544.91 L546.193 1518.55 L537.883 1520.21 L537.883 1515.95 L546.147 1514.29 L550.823 1514.29 L550.823 1544.91 L558.461 1544.91 L558.461 1548.85 L538.554 1548.85 L538.554 1544.91 Z" fill="#000000" fill-rule="evenodd" fill-opacity="1" /><path clip-path="url(#clip310)" d="M568.045 1548.13 L568.045 1543.87 Q569.804 1544.7 571.61 1545.14 Q573.415 1545.58 575.151 1545.58 Q579.781 1545.58 582.211 1542.48 Q584.665 1539.36 585.012 1533.01 Q583.67 1535.01 581.609 1536.07 Q579.549 1537.13 577.049 1537.13 Q571.864 1537.13 568.832 1534.01 Q565.823 1530.86 565.823 1525.42 Q565.823 1520.1 568.971 1516.88 Q572.119 1513.66 577.35 1513.66 Q583.346 1513.66 586.494 1518.27 Q589.665 1522.85 589.665 1531.6 Q589.665 1539.77 585.776 1544.66 Q581.91 1549.52 575.36 1549.52 Q573.6 1549.52 571.795 1549.17 Q569.989 1548.82 568.045 1548.13 M577.35 1533.48 Q580.498 1533.48 582.327 1531.32 Q584.179 1529.17 584.179 1525.42 Q584.179 1521.7 582.327 1519.54 Q580.498 1517.37 577.35 1517.37 Q574.202 1517.37 572.35 1519.54 Q570.522 1521.7 570.522 1525.42 Q570.522 1529.17 572.35 1531.32 Q574.202 1533.48 577.35 1533.48 Z" fill="#000000" fill-rule="evenodd" fill-opacity="1" /><path clip-path="url(#clip310)" d="M596.887 1514.29 L619.109 1514.29 L619.109 1516.28 L606.563 1548.85 L601.679 1548.85 L613.484 1518.22 L596.887 1518.22 L596.887 1514.29 Z" fill="#000000" fill-rule="evenodd" fill-opacity="1" /><path clip-path="url(#clip310)" d="M632.257 1544.91 L648.577 1544.91 L648.577 1548.85 L626.632 1548.85 L626.632 1544.91 Q629.294 1542.16 633.878 1537.53 Q638.484 1532.88 639.665 1531.53 Q641.91 1529.01 642.79 1527.27 Q643.692 1525.51 643.692 1523.82 Q643.692 1521.07 641.748 1519.33 Q639.827 1517.6 636.725 1517.6 Q634.526 1517.6 632.072 1518.36 Q629.642 1519.13 626.864 1520.68 L626.864 1515.95 Q629.688 1514.82 632.142 1514.24 Q634.595 1513.66 636.632 1513.66 Q642.003 1513.66 645.197 1516.35 Q648.392 1519.03 648.392 1523.52 Q648.392 1525.65 647.581 1527.57 Q646.794 1529.47 644.688 1532.07 Q644.109 1532.74 641.007 1535.95 Q637.905 1539.15 632.257 1544.91 Z" fill="#000000" fill-rule="evenodd" fill-opacity="1" /><path clip-path="url(#clip310)" d="M655.637 1533.96 L668.114 1533.96 L668.114 1537.76 L655.637 1537.76 L655.637 1533.96 Z" fill="#000000" fill-rule="evenodd" fill-opacity="1" /><path clip-path="url(#clip310)" d="M685.498 1517.37 Q681.887 1517.37 680.058 1520.93 Q678.252 1524.47 678.252 1531.6 Q678.252 1538.71 680.058 1542.27 Q681.887 1545.82 685.498 1545.82 Q689.132 1545.82 690.938 1542.27 Q692.766 1538.71 692.766 1531.6 Q692.766 1524.47 690.938 1520.93 Q689.132 1517.37 685.498 1517.37 M685.498 1513.66 Q691.308 1513.66 694.364 1518.27 Q697.442 1522.85 697.442 1531.6 Q697.442 1540.33 694.364 1544.94 Q691.308 1549.52 685.498 1549.52 Q679.688 1549.52 676.609 1544.94 Q673.553 1540.33 673.553 1531.6 Q673.553 1522.85 676.609 1518.27 Q679.688 1513.66 685.498 1513.66 Z" fill="#000000" fill-rule="evenodd" fill-opacity="1" /><path clip-path="url(#clip310)" d="M704.479 1514.29 L726.701 1514.29 L726.701 1516.28 L714.155 1548.85 L709.271 1548.85 L721.076 1518.22 L704.479 1518.22 L704.479 1514.29 Z" fill="#000000" fill-rule="evenodd" fill-opacity="1" /><path clip-path="url(#clip310)" d="M733.067 1533.96 L745.544 1533.96 L745.544 1537.76 L733.067 1537.76 L733.067 1533.96 Z" fill="#000000" fill-rule="evenodd" fill-opacity="1" /><path clip-path="url(#clip310)" d="M762.928 1517.37 Q759.317 1517.37 757.488 1520.93 Q755.683 1524.47 755.683 1531.6 Q755.683 1538.71 757.488 1542.27 Q759.317 1545.82 762.928 1545.82 Q766.562 1545.82 768.368 1542.27 Q770.196 1538.71 770.196 1531.6 Q770.196 1524.47 768.368 1520.93 Q766.562 1517.37 762.928 1517.37 M762.928 1513.66 Q768.738 1513.66 771.794 1518.27 Q774.872 1522.85 774.872 1531.6 Q774.872 1540.33 771.794 1544.94 Q768.738 1549.52 762.928 1549.52 Q757.118 1549.52 754.039 1544.94 Q750.984 1540.33 750.984 1531.6 Q750.984 1522.85 754.039 1518.27 Q757.118 1513.66 762.928 1513.66 Z" fill="#000000" fill-rule="evenodd" fill-opacity="1" /><path clip-path="url(#clip310)" d="M783.9 1544.91 L791.539 1544.91 L791.539 1518.55 L783.229 1520.21 L783.229 1515.95 L791.493 1514.29 L796.169 1514.29 L796.169 1544.91 L803.807 1544.91 L803.807 1548.85 L783.9 1548.85 L783.9 1544.91 Z" fill="#000000" fill-rule="evenodd" fill-opacity="1" /><path clip-path="url(#clip310)" d="M962.851 1544.91 L970.489 1544.91 L970.489 1518.55 L962.179 1520.21 L962.179 1515.95 L970.443 1514.29 L975.119 1514.29 L975.119 1544.91 L982.758 1544.91 L982.758 1548.85 L962.851 1548.85 L962.851 1544.91 Z" fill="#000000" fill-rule="evenodd" fill-opacity="1" /><path clip-path="url(#clip310)" d="M992.341 1548.13 L992.341 1543.87 Q994.1 1544.7 995.906 1545.14 Q997.711 1545.58 999.448 1545.58 Q1004.08 1545.58 1006.51 1542.48 Q1008.96 1539.36 1009.31 1533.01 Q1007.97 1535.01 1005.91 1536.07 Q1003.85 1537.13 1001.35 1537.13 Q996.161 1537.13 993.128 1534.01 Q990.119 1530.86 990.119 1525.42 Q990.119 1520.1 993.267 1516.88 Q996.415 1513.66 1001.65 1513.66 Q1007.64 1513.66 1010.79 1518.27 Q1013.96 1522.85 1013.96 1531.6 Q1013.96 1539.77 1010.07 1544.66 Q1006.21 1549.52 999.656 1549.52 Q997.897 1549.52 996.091 1549.17 Q994.286 1548.82 992.341 1548.13 M1001.65 1533.48 Q1004.79 1533.48 1006.62 1531.32 Q1008.48 1529.17 1008.48 1525.42 Q1008.48 1521.7 1006.62 1519.54 Q1004.79 1517.37 1001.65 1517.37 Q998.498 1517.37 996.647 1519.54 Q994.818 1521.7 994.818 1525.42 Q994.818 1529.17 996.647 1531.32 Q998.498 1533.48 1001.65 1533.48 Z" fill="#000000" fill-rule="evenodd" fill-opacity="1" /><path clip-path="url(#clip310)" d="M1032.36 1532.44 Q1029.03 1532.44 1027.11 1534.22 Q1025.21 1536 1025.21 1539.13 Q1025.21 1542.25 1027.11 1544.03 Q1029.03 1545.82 1032.36 1545.82 Q1035.7 1545.82 1037.62 1544.03 Q1039.54 1542.23 1039.54 1539.13 Q1039.54 1536 1037.62 1534.22 Q1035.72 1532.44 1032.36 1532.44 M1027.69 1530.45 Q1024.68 1529.7 1022.99 1527.64 Q1021.32 1525.58 1021.32 1522.62 Q1021.32 1518.48 1024.26 1516.07 Q1027.23 1513.66 1032.36 1513.66 Q1037.53 1513.66 1040.47 1516.07 Q1043.41 1518.48 1043.41 1522.62 Q1043.41 1525.58 1041.72 1527.64 Q1040.05 1529.7 1037.06 1530.45 Q1040.44 1531.23 1042.32 1533.52 Q1044.22 1535.82 1044.22 1539.13 Q1044.22 1544.15 1041.14 1546.83 Q1038.08 1549.52 1032.36 1549.52 Q1026.65 1549.52 1023.57 1546.83 Q1020.51 1544.15 1020.51 1539.13 Q1020.51 1535.82 1022.41 1533.52 Q1024.31 1531.23 1027.69 1530.45 M1025.98 1523.06 Q1025.98 1525.75 1027.64 1527.25 Q1029.33 1528.76 1032.36 1528.76 Q1035.37 1528.76 1037.06 1527.25 Q1038.78 1525.75 1038.78 1523.06 Q1038.78 1520.38 1037.06 1518.87 Q1035.37 1517.37 1032.36 1517.37 Q1029.33 1517.37 1027.64 1518.87 Q1025.98 1520.38 1025.98 1523.06 Z" fill="#000000" fill-rule="evenodd" fill-opacity="1" /><path clip-path="url(#clip310)" d="M1052.57 1514.29 L1070.93 1514.29 L1070.93 1518.22 L1056.85 1518.22 L1056.85 1526.7 Q1057.87 1526.35 1058.89 1526.19 Q1059.91 1526 1060.93 1526 Q1066.72 1526 1070.1 1529.17 Q1073.47 1532.34 1073.47 1537.76 Q1073.47 1543.34 1070 1546.44 Q1066.53 1549.52 1060.21 1549.52 Q1058.04 1549.52 1055.77 1549.15 Q1053.52 1548.78 1051.11 1548.04 L1051.11 1543.34 Q1053.2 1544.47 1055.42 1545.03 Q1057.64 1545.58 1060.12 1545.58 Q1064.12 1545.58 1066.46 1543.48 Q1068.8 1541.37 1068.8 1537.76 Q1068.8 1534.15 1066.46 1532.04 Q1064.12 1529.94 1060.12 1529.94 Q1058.24 1529.94 1056.37 1530.35 Q1054.52 1530.77 1052.57 1531.65 L1052.57 1514.29 Z" fill="#000000" fill-rule="evenodd" fill-opacity="1" /><path clip-path="url(#clip310)" d="M1079.93 1533.96 L1092.41 1533.96 L1092.41 1537.76 L1079.93 1537.76 L1079.93 1533.96 Z" fill="#000000" fill-rule="evenodd" fill-opacity="1" /><path clip-path="url(#clip310)" d="M1109.79 1517.37 Q1106.18 1517.37 1104.35 1520.93 Q1102.55 1524.47 1102.55 1531.6 Q1102.55 1538.71 1104.35 1542.27 Q1106.18 1545.82 1109.79 1545.82 Q1113.43 1545.82 1115.23 1542.27 Q1117.06 1538.71 1117.06 1531.6 Q1117.06 1524.47 1115.23 1520.93 Q1113.43 1517.37 1109.79 1517.37 M1109.79 1513.66 Q1115.6 1513.66 1118.66 1518.27 Q1121.74 1522.85 1121.74 1531.6 Q1121.74 1540.33 1118.66 1544.94 Q1115.6 1549.52 1109.79 1549.52 Q1103.98 1549.52 1100.91 1544.94 Q1097.85 1540.33 1097.85 1531.6 Q1097.85 1522.85 1100.91 1518.27 Q1103.98 1513.66 1109.79 1513.66 Z" fill="#000000" fill-rule="evenodd" fill-opacity="1" /><path clip-path="url(#clip310)" d="M1130.77 1544.91 L1138.41 1544.91 L1138.41 1518.55 L1130.09 1520.21 L1130.09 1515.95 L1138.36 1514.29 L1143.03 1514.29 L1143.03 1544.91 L1150.67 1544.91 L1150.67 1548.85 L1130.77 1548.85 L1130.77 1544.91 Z" fill="#000000" fill-rule="evenodd" fill-opacity="1" /><path clip-path="url(#clip310)" d="M1157.36 1533.96 L1169.84 1533.96 L1169.84 1537.76 L1157.36 1537.76 L1157.36 1533.96 Z" fill="#000000" fill-rule="evenodd" fill-opacity="1" /><path clip-path="url(#clip310)" d="M1187.22 1517.37 Q1183.61 1517.37 1181.78 1520.93 Q1179.98 1524.47 1179.98 1531.6 Q1179.98 1538.71 1181.78 1542.27 Q1183.61 1545.82 1187.22 1545.82 Q1190.86 1545.82 1192.66 1542.27 Q1194.49 1538.71 1194.49 1531.6 Q1194.49 1524.47 1192.66 1520.93 Q1190.86 1517.37 1187.22 1517.37 M1187.22 1513.66 Q1193.03 1513.66 1196.09 1518.27 Q1199.17 1522.85 1199.17 1531.6 Q1199.17 1540.33 1196.09 1544.94 Q1193.03 1549.52 1187.22 1549.52 Q1181.41 1549.52 1178.34 1544.94 Q1175.28 1540.33 1175.28 1531.6 Q1175.28 1522.85 1178.34 1518.27 Q1181.41 1513.66 1187.22 1513.66 Z" fill="#000000" fill-rule="evenodd" fill-opacity="1" /><path clip-path="url(#clip310)" d="M1208.2 1544.91 L1215.84 1544.91 L1215.84 1518.55 L1207.53 1520.21 L1207.53 1515.95 L1215.79 1514.29 L1220.46 1514.29 L1220.46 1544.91 L1228.1 1544.91 L1228.1 1548.85 L1208.2 1548.85 L1208.2 1544.91 Z" fill="#000000" fill-rule="evenodd" fill-opacity="1" /><path clip-path="url(#clip310)" d="M1387.15 1544.91 L1394.79 1544.91 L1394.79 1518.55 L1386.48 1520.21 L1386.48 1515.95 L1394.74 1514.29 L1399.42 1514.29 L1399.42 1544.91 L1407.05 1544.91 L1407.05 1548.85 L1387.15 1548.85 L1387.15 1544.91 Z" fill="#000000" fill-rule="evenodd" fill-opacity="1" /><path clip-path="url(#clip310)" d="M1416.64 1548.13 L1416.64 1543.87 Q1418.4 1544.7 1420.2 1545.14 Q1422.01 1545.58 1423.74 1545.58 Q1428.37 1545.58 1430.8 1542.48 Q1433.26 1539.36 1433.6 1533.01 Q1432.26 1535.01 1430.2 1536.07 Q1428.14 1537.13 1425.64 1537.13 Q1420.46 1537.13 1417.42 1534.01 Q1414.42 1530.86 1414.42 1525.42 Q1414.42 1520.1 1417.56 1516.88 Q1420.71 1513.66 1425.94 1513.66 Q1431.94 1513.66 1435.09 1518.27 Q1438.26 1522.85 1438.26 1531.6 Q1438.26 1539.77 1434.37 1544.66 Q1430.5 1549.52 1423.95 1549.52 Q1422.19 1549.52 1420.39 1549.17 Q1418.58 1548.82 1416.64 1548.13 M1425.94 1533.48 Q1429.09 1533.48 1430.92 1531.32 Q1432.77 1529.17 1432.77 1525.42 Q1432.77 1521.7 1430.92 1519.54 Q1429.09 1517.37 1425.94 1517.37 Q1422.79 1517.37 1420.94 1519.54 Q1419.11 1521.7 1419.11 1525.42 Q1419.11 1529.17 1420.94 1531.32 Q1422.79 1533.48 1425.94 1533.48 Z" fill="#000000" fill-rule="evenodd" fill-opacity="1" /><path clip-path="url(#clip310)" d="M1446.8 1548.13 L1446.8 1543.87 Q1448.56 1544.7 1450.36 1545.14 Q1452.17 1545.58 1453.91 1545.58 Q1458.54 1545.58 1460.97 1542.48 Q1463.42 1539.36 1463.77 1533.01 Q1462.42 1535.01 1460.36 1536.07 Q1458.3 1537.13 1455.8 1537.13 Q1450.62 1537.13 1447.59 1534.01 Q1444.58 1530.86 1444.58 1525.42 Q1444.58 1520.1 1447.73 1516.88 Q1450.87 1513.66 1456.1 1513.66 Q1462.1 1513.66 1465.25 1518.27 Q1468.42 1522.85 1468.42 1531.6 Q1468.42 1539.77 1464.53 1544.66 Q1460.67 1549.52 1454.11 1549.52 Q1452.35 1549.52 1450.55 1549.17 Q1448.74 1548.82 1446.8 1548.13 M1456.1 1533.48 Q1459.25 1533.48 1461.08 1531.32 Q1462.93 1529.17 1462.93 1525.42 Q1462.93 1521.7 1461.08 1519.54 Q1459.25 1517.37 1456.1 1517.37 Q1452.96 1517.37 1451.1 1519.54 Q1449.28 1521.7 1449.28 1525.42 Q1449.28 1529.17 1451.1 1531.32 Q1452.96 1533.48 1456.1 1533.48 Z" fill="#000000" fill-rule="evenodd" fill-opacity="1" /><path clip-path="url(#clip310)" d="M1475.64 1514.29 L1497.86 1514.29 L1497.86 1516.28 L1485.32 1548.85 L1480.43 1548.85 L1492.24 1518.22 L1475.64 1518.22 L1475.64 1514.29 Z" fill="#000000" fill-rule="evenodd" fill-opacity="1" /><path clip-path="url(#clip310)" d="M1504.23 1533.96 L1516.71 1533.96 L1516.71 1537.76 L1504.23 1537.76 L1504.23 1533.96 Z" fill="#000000" fill-rule="evenodd" fill-opacity="1" /><path clip-path="url(#clip310)" d="M1534.09 1517.37 Q1530.48 1517.37 1528.65 1520.93 Q1526.85 1524.47 1526.85 1531.6 Q1526.85 1538.71 1528.65 1542.27 Q1530.48 1545.82 1534.09 1545.82 Q1537.72 1545.82 1539.53 1542.27 Q1541.36 1538.71 1541.36 1531.6 Q1541.36 1524.47 1539.53 1520.93 Q1537.72 1517.37 1534.09 1517.37 M1534.09 1513.66 Q1539.9 1513.66 1542.96 1518.27 Q1546.03 1522.85 1546.03 1531.6 Q1546.03 1540.33 1542.96 1544.94 Q1539.9 1549.52 1534.09 1549.52 Q1528.28 1549.52 1525.2 1544.94 Q1522.15 1540.33 1522.15 1531.6 Q1522.15 1522.85 1525.2 1518.27 Q1528.28 1513.66 1534.09 1513.66 Z" fill="#000000" fill-rule="evenodd" fill-opacity="1" /><path clip-path="url(#clip310)" d="M1553.07 1514.29 L1575.29 1514.29 L1575.29 1516.28 L1562.75 1548.85 L1557.86 1548.85 L1569.67 1518.22 L1553.07 1518.22 L1553.07 1514.29 Z" fill="#000000" fill-rule="evenodd" fill-opacity="1" /><path clip-path="url(#clip310)" d="M1581.66 1533.96 L1594.14 1533.96 L1594.14 1537.76 L1581.66 1537.76 L1581.66 1533.96 Z" fill="#000000" fill-rule="evenodd" fill-opacity="1" /><path clip-path="url(#clip310)" d="M1611.52 1517.37 Q1607.91 1517.37 1606.08 1520.93 Q1604.28 1524.47 1604.28 1531.6 Q1604.28 1538.71 1606.08 1542.27 Q1607.91 1545.82 1611.52 1545.82 Q1615.15 1545.82 1616.96 1542.27 Q1618.79 1538.71 1618.79 1531.6 Q1618.79 1524.47 1616.96 1520.93 Q1615.15 1517.37 1611.52 1517.37 M1611.52 1513.66 Q1617.33 1513.66 1620.39 1518.27 Q1623.47 1522.85 1623.47 1531.6 Q1623.47 1540.33 1620.39 1544.94 Q1617.33 1549.52 1611.52 1549.52 Q1605.71 1549.52 1602.63 1544.94 Q1599.58 1540.33 1599.58 1531.6 Q1599.58 1522.85 1602.63 1518.27 Q1605.71 1513.66 1611.52 1513.66 Z" fill="#000000" fill-rule="evenodd" fill-opacity="1" /><path clip-path="url(#clip310)" d="M1632.49 1544.91 L1640.13 1544.91 L1640.13 1518.55 L1631.82 1520.21 L1631.82 1515.95 L1640.09 1514.29 L1644.76 1514.29 L1644.76 1544.91 L1652.4 1544.91 L1652.4 1548.85 L1632.49 1548.85 L1632.49 1544.91 Z" fill="#000000" fill-rule="evenodd" fill-opacity="1" /><path clip-path="url(#clip310)" d="M1815.53 1544.91 L1831.85 1544.91 L1831.85 1548.85 L1809.9 1548.85 L1809.9 1544.91 Q1812.57 1542.16 1817.15 1537.53 Q1821.76 1532.88 1822.94 1531.53 Q1825.18 1529.01 1826.06 1527.27 Q1826.96 1525.51 1826.96 1523.82 Q1826.96 1521.07 1825.02 1519.33 Q1823.1 1517.6 1820 1517.6 Q1817.8 1517.6 1815.34 1518.36 Q1812.91 1519.13 1810.14 1520.68 L1810.14 1515.95 Q1812.96 1514.82 1815.41 1514.24 Q1817.87 1513.66 1819.9 1513.66 Q1825.27 1513.66 1828.47 1516.35 Q1831.66 1519.03 1831.66 1523.52 Q1831.66 1525.65 1830.85 1527.57 Q1830.07 1529.47 1827.96 1532.07 Q1827.38 1532.74 1824.28 1535.95 Q1821.18 1539.15 1815.53 1544.91 Z" fill="#000000" fill-rule="evenodd" fill-opacity="1" /><path clip-path="url(#clip310)" d="M1851.66 1517.37 Q1848.05 1517.37 1846.22 1520.93 Q1844.42 1524.47 1844.42 1531.6 Q1844.42 1538.71 1846.22 1542.27 Q1848.05 1545.82 1851.66 1545.82 Q1855.3 1545.82 1857.1 1542.27 Q1858.93 1538.71 1858.93 1531.6 Q1858.93 1524.47 1857.1 1520.93 Q1855.3 1517.37 1851.66 1517.37 M1851.66 1513.66 Q1857.47 1513.66 1860.53 1518.27 Q1863.61 1522.85 1863.61 1531.6 Q1863.61 1540.33 1860.53 1544.94 Q1857.47 1549.52 1851.66 1549.52 Q1845.85 1549.52 1842.77 1544.94 Q1839.72 1540.33 1839.72 1531.6 Q1839.72 1522.85 1842.77 1518.27 Q1845.85 1513.66 1851.66 1513.66 Z" fill="#000000" fill-rule="evenodd" fill-opacity="1" /><path clip-path="url(#clip310)" d="M1872.64 1544.91 L1880.27 1544.91 L1880.27 1518.55 L1871.96 1520.21 L1871.96 1515.95 L1880.23 1514.29 L1884.9 1514.29 L1884.9 1544.91 L1892.54 1544.91 L1892.54 1548.85 L1872.64 1548.85 L1872.64 1544.91 Z" fill="#000000" fill-rule="evenodd" fill-opacity="1" /><path clip-path="url(#clip310)" d="M1911.99 1517.37 Q1908.38 1517.37 1906.55 1520.93 Q1904.74 1524.47 1904.74 1531.6 Q1904.74 1538.71 1906.55 1542.27 Q1908.38 1545.82 1911.99 1545.82 Q1915.62 1545.82 1917.43 1542.27 Q1919.26 1538.71 1919.26 1531.6 Q1919.26 1524.47 1917.43 1520.93 Q1915.62 1517.37 1911.99 1517.37 M1911.99 1513.66 Q1917.8 1513.66 1920.85 1518.27 Q1923.93 1522.85 1923.93 1531.6 Q1923.93 1540.33 1920.85 1544.94 Q1917.8 1549.52 1911.99 1549.52 Q1906.18 1549.52 1903.1 1544.94 Q1900.04 1540.33 1900.04 1531.6 Q1900.04 1522.85 1903.1 1518.27 Q1906.18 1513.66 1911.99 1513.66 Z" fill="#000000" fill-rule="evenodd" fill-opacity="1" /><path clip-path="url(#clip310)" d="M1929.39 1533.96 L1941.87 1533.96 L1941.87 1537.76 L1929.39 1537.76 L1929.39 1533.96 Z" fill="#000000" fill-rule="evenodd" fill-opacity="1" /><path clip-path="url(#clip310)" d="M1959.25 1517.37 Q1955.64 1517.37 1953.82 1520.93 Q1952.01 1524.47 1952.01 1531.6 Q1952.01 1538.71 1953.82 1542.27 Q1955.64 1545.82 1959.25 1545.82 Q1962.89 1545.82 1964.69 1542.27 Q1966.52 1538.71 1966.52 1531.6 Q1966.52 1524.47 1964.69 1520.93 Q1962.89 1517.37 1959.25 1517.37 M1959.25 1513.66 Q1965.07 1513.66 1968.12 1518.27 Q1971.2 1522.85 1971.2 1531.6 Q1971.2 1540.33 1968.12 1544.94 Q1965.07 1549.52 1959.25 1549.52 Q1953.44 1549.52 1950.37 1544.94 Q1947.31 1540.33 1947.31 1531.6 Q1947.31 1522.85 1950.37 1518.27 Q1953.44 1513.66 1959.25 1513.66 Z" fill="#000000" fill-rule="evenodd" fill-opacity="1" /><path clip-path="url(#clip310)" d="M1980.23 1544.91 L1987.87 1544.91 L1987.87 1518.55 L1979.56 1520.21 L1979.56 1515.95 L1987.82 1514.29 L1992.5 1514.29 L1992.5 1544.91 L2000.13 1544.91 L2000.13 1548.85 L1980.23 1548.85 L1980.23 1544.91 Z" fill="#000000" fill-rule="evenodd" fill-opacity="1" /><path clip-path="url(#clip310)" d="M2006.82 1533.96 L2019.3 1533.96 L2019.3 1537.76 L2006.82 1537.76 L2006.82 1533.96 Z" fill="#000000" fill-rule="evenodd" fill-opacity="1" /><path clip-path="url(#clip310)" d="M2036.69 1517.37 Q2033.07 1517.37 2031.25 1520.93 Q2029.44 1524.47 2029.44 1531.6 Q2029.44 1538.71 2031.25 1542.27 Q2033.07 1545.82 2036.69 1545.82 Q2040.32 1545.82 2042.12 1542.27 Q2043.95 1538.71 2043.95 1531.6 Q2043.95 1524.47 2042.12 1520.93 Q2040.32 1517.37 2036.69 1517.37 M2036.69 1513.66 Q2042.5 1513.66 2045.55 1518.27 Q2048.63 1522.85 2048.63 1531.6 Q2048.63 1540.33 2045.55 1544.94 Q2042.5 1549.52 2036.69 1549.52 Q2030.87 1549.52 2027.8 1544.94 Q2024.74 1540.33 2024.74 1531.6 Q2024.74 1522.85 2027.8 1518.27 Q2030.87 1513.66 2036.69 1513.66 Z" fill="#000000" fill-rule="evenodd" fill-opacity="1" /><path clip-path="url(#clip310)" d="M2057.66 1544.91 L2065.3 1544.91 L2065.3 1518.55 L2056.99 1520.21 L2056.99 1515.95 L2065.25 1514.29 L2069.93 1514.29 L2069.93 1544.91 L2077.56 1544.91 L2077.56 1548.85 L2057.66 1548.85 L2057.66 1544.91 Z" fill="#000000" fill-rule="evenodd" fill-opacity="1" /><polyline clip-path="url(#clip312)" style="stroke:#000000; stroke-linecap:butt; stroke-linejoin:round; stroke-width:2; stroke-opacity:0.1; fill:none" points="
  193.936,1486.45 2352.76,1486.45 
  "/>
<polyline clip-path="url(#clip312)" style="stroke:#000000; stroke-linecap:butt; stroke-linejoin:round; stroke-width:2; stroke-opacity:0.1; fill:none" points="
  193.936,1145.7 2352.76,1145.7 
  "/>
<polyline clip-path="url(#clip312)" style="stroke:#000000; stroke-linecap:butt; stroke-linejoin:round; stroke-width:2; stroke-opacity:0.1; fill:none" points="
  193.936,804.96 2352.76,804.96 
  "/>
<polyline clip-path="url(#clip312)" style="stroke:#000000; stroke-linecap:butt; stroke-linejoin:round; stroke-width:2; stroke-opacity:0.1; fill:none" points="
  193.936,464.216 2352.76,464.216 
  "/>
<polyline clip-path="url(#clip312)" style="stroke:#000000; stroke-linecap:butt; stroke-linejoin:round; stroke-width:2; stroke-opacity:0.1; fill:none" points="
  193.936,123.472 2352.76,123.472 
  "/>
<polyline clip-path="url(#clip310)" style="stroke:#000000; stroke-linecap:butt; stroke-linejoin:round; stroke-width:4; stroke-opacity:1; fill:none" points="
  193.936,1486.45 193.936,123.472 
  "/>
<polyline clip-path="url(#clip310)" style="stroke:#000000; stroke-linecap:butt; stroke-linejoin:round; stroke-width:4; stroke-opacity:1; fill:none" points="
  2352.76,1486.45 2352.76,123.472 
  "/>
<polyline clip-path="url(#clip310)" style="stroke:#000000; stroke-linecap:butt; stroke-linejoin:round; stroke-width:4; stroke-opacity:1; fill:none" points="
  193.936,1486.45 212.834,1486.45 
  "/>
<polyline clip-path="url(#clip310)" style="stroke:#000000; stroke-linecap:butt; stroke-linejoin:round; stroke-width:4; stroke-opacity:1; fill:none" points="
  193.936,1145.7 212.834,1145.7 
  "/>
<polyline clip-path="url(#clip310)" style="stroke:#000000; stroke-linecap:butt; stroke-linejoin:round; stroke-width:4; stroke-opacity:1; fill:none" points="
  193.936,804.96 212.834,804.96 
  "/>
<polyline clip-path="url(#clip310)" style="stroke:#000000; stroke-linecap:butt; stroke-linejoin:round; stroke-width:4; stroke-opacity:1; fill:none" points="
  193.936,464.216 212.834,464.216 
  "/>
<polyline clip-path="url(#clip310)" style="stroke:#000000; stroke-linecap:butt; stroke-linejoin:round; stroke-width:4; stroke-opacity:1; fill:none" points="
  193.936,123.472 212.834,123.472 
  "/>
<path clip-path="url(#clip310)" d="M50.9921 1486.9 L80.6679 1486.9 L80.6679 1490.83 L50.9921 1490.83 L50.9921 1486.9 Z" fill="#000000" fill-rule="evenodd" fill-opacity="1" /><path clip-path="url(#clip310)" d="M90.8067 1469.17 L109.163 1469.17 L109.163 1473.1 L95.0891 1473.1 L95.0891 1481.58 Q96.1076 1481.23 97.1261 1481.07 Q98.1447 1480.88 99.1632 1480.88 Q104.95 1480.88 108.33 1484.05 Q111.709 1487.22 111.709 1492.64 Q111.709 1498.22 108.237 1501.32 Q104.765 1504.4 98.4456 1504.4 Q96.2697 1504.4 94.0012 1504.03 Q91.7558 1503.66 89.3484 1502.92 L89.3484 1498.22 Q91.4317 1499.35 93.6539 1499.91 Q95.8761 1500.46 98.353 1500.46 Q102.358 1500.46 104.696 1498.36 Q107.033 1496.25 107.033 1492.64 Q107.033 1489.03 104.696 1486.92 Q102.358 1484.82 98.353 1484.82 Q96.478 1484.82 94.603 1485.23 Q92.7512 1485.65 90.8067 1486.53 L90.8067 1469.17 Z" fill="#000000" fill-rule="evenodd" fill-opacity="1" /><path clip-path="url(#clip310)" d="M120.922 1497.85 L125.807 1497.85 L125.807 1503.73 L120.922 1503.73 L120.922 1497.85 Z" fill="#000000" fill-rule="evenodd" fill-opacity="1" /><path clip-path="url(#clip310)" d="M145.992 1472.25 Q142.381 1472.25 140.552 1475.81 Q138.746 1479.35 138.746 1486.48 Q138.746 1493.59 140.552 1497.15 Q142.381 1500.7 145.992 1500.7 Q149.626 1500.7 151.431 1497.15 Q153.26 1493.59 153.26 1486.48 Q153.26 1479.35 151.431 1475.81 Q149.626 1472.25 145.992 1472.25 M145.992 1468.54 Q151.802 1468.54 154.857 1473.15 Q157.936 1477.73 157.936 1486.48 Q157.936 1495.21 154.857 1499.82 Q151.802 1504.4 145.992 1504.4 Q140.181 1504.4 137.103 1499.82 Q134.047 1495.21 134.047 1486.48 Q134.047 1477.73 137.103 1473.15 Q140.181 1468.54 145.992 1468.54 Z" fill="#000000" fill-rule="evenodd" fill-opacity="1" /><path clip-path="url(#clip310)" d="M51.9875 1146.16 L81.6633 1146.16 L81.6633 1150.09 L51.9875 1150.09 L51.9875 1146.16 Z" fill="#000000" fill-rule="evenodd" fill-opacity="1" /><path clip-path="url(#clip310)" d="M95.7836 1159.05 L112.103 1159.05 L112.103 1162.98 L90.1586 1162.98 L90.1586 1159.05 Q92.8206 1156.29 97.4039 1151.66 Q102.01 1147.01 103.191 1145.67 Q105.436 1143.15 106.316 1141.41 Q107.219 1139.65 107.219 1137.96 Q107.219 1135.21 105.274 1133.47 Q103.353 1131.73 100.251 1131.73 Q98.0521 1131.73 95.5984 1132.5 Q93.1678 1133.26 90.3901 1134.81 L90.3901 1130.09 Q93.2141 1128.96 95.6678 1128.38 Q98.1215 1127.8 100.159 1127.8 Q105.529 1127.8 108.723 1130.48 Q111.918 1133.17 111.918 1137.66 Q111.918 1139.79 111.108 1141.71 Q110.321 1143.61 108.214 1146.2 Q107.635 1146.87 104.534 1150.09 Q101.432 1153.28 95.7836 1159.05 Z" fill="#000000" fill-rule="evenodd" fill-opacity="1" /><path clip-path="url(#clip310)" d="M121.918 1157.1 L126.802 1157.1 L126.802 1162.98 L121.918 1162.98 L121.918 1157.1 Z" fill="#000000" fill-rule="evenodd" fill-opacity="1" /><path clip-path="url(#clip310)" d="M137.033 1128.42 L155.39 1128.42 L155.39 1132.36 L141.316 1132.36 L141.316 1140.83 Q142.334 1140.48 143.353 1140.32 Q144.371 1140.14 145.39 1140.14 Q151.177 1140.14 154.556 1143.31 Q157.936 1146.48 157.936 1151.9 Q157.936 1157.47 154.464 1160.58 Q150.992 1163.66 144.672 1163.66 Q142.496 1163.66 140.228 1163.28 Q137.982 1162.91 135.575 1162.17 L135.575 1157.47 Q137.658 1158.61 139.881 1159.16 Q142.103 1159.72 144.58 1159.72 Q148.584 1159.72 150.922 1157.61 Q153.26 1155.51 153.26 1151.9 Q153.26 1148.28 150.922 1146.18 Q148.584 1144.07 144.58 1144.07 Q142.705 1144.07 140.83 1144.49 Q138.978 1144.91 137.033 1145.78 L137.033 1128.42 Z" fill="#000000" fill-rule="evenodd" fill-opacity="1" /><path clip-path="url(#clip310)" d="M100.76 790.759 Q97.1493 790.759 95.3206 794.323 Q93.515 797.865 93.515 804.995 Q93.515 812.101 95.3206 815.666 Q97.1493 819.208 100.76 819.208 Q104.395 819.208 106.2 815.666 Q108.029 812.101 108.029 804.995 Q108.029 797.865 106.2 794.323 Q104.395 790.759 100.76 790.759 M100.76 787.055 Q106.571 787.055 109.626 791.661 Q112.705 796.245 112.705 804.995 Q112.705 813.722 109.626 818.328 Q106.571 822.911 100.76 822.911 Q94.9502 822.911 91.8715 818.328 Q88.816 813.722 88.816 804.995 Q88.816 796.245 91.8715 791.661 Q94.9502 787.055 100.76 787.055 Z" fill="#000000" fill-rule="evenodd" fill-opacity="1" /><path clip-path="url(#clip310)" d="M120.922 816.36 L125.807 816.36 L125.807 822.24 L120.922 822.24 L120.922 816.36 Z" fill="#000000" fill-rule="evenodd" fill-opacity="1" /><path clip-path="url(#clip310)" d="M145.992 790.759 Q142.381 790.759 140.552 794.323 Q138.746 797.865 138.746 804.995 Q138.746 812.101 140.552 815.666 Q142.381 819.208 145.992 819.208 Q149.626 819.208 151.431 815.666 Q153.26 812.101 153.26 804.995 Q153.26 797.865 151.431 794.323 Q149.626 790.759 145.992 790.759 M145.992 787.055 Q151.802 787.055 154.857 791.661 Q157.936 796.245 157.936 804.995 Q157.936 813.722 154.857 818.328 Q151.802 822.911 145.992 822.911 Q140.181 822.911 137.103 818.328 Q134.047 813.722 134.047 804.995 Q134.047 796.245 137.103 791.661 Q140.181 787.055 145.992 787.055 Z" fill="#000000" fill-rule="evenodd" fill-opacity="1" /><path clip-path="url(#clip310)" d="M95.7836 477.561 L112.103 477.561 L112.103 481.496 L90.1586 481.496 L90.1586 477.561 Q92.8206 474.806 97.4039 470.177 Q102.01 465.524 103.191 464.181 Q105.436 461.658 106.316 459.922 Q107.219 458.163 107.219 456.473 Q107.219 453.718 105.274 451.982 Q103.353 450.246 100.251 450.246 Q98.0521 450.246 95.5984 451.01 Q93.1678 451.774 90.3901 453.325 L90.3901 448.603 Q93.2141 447.468 95.6678 446.89 Q98.1215 446.311 100.159 446.311 Q105.529 446.311 108.723 448.996 Q111.918 451.681 111.918 456.172 Q111.918 458.302 111.108 460.223 Q110.321 462.121 108.214 464.714 Q107.635 465.385 104.534 468.603 Q101.432 471.797 95.7836 477.561 Z" fill="#000000" fill-rule="evenodd" fill-opacity="1" /><path clip-path="url(#clip310)" d="M121.918 475.616 L126.802 475.616 L126.802 481.496 L121.918 481.496 L121.918 475.616 Z" fill="#000000" fill-rule="evenodd" fill-opacity="1" /><path clip-path="url(#clip310)" d="M137.033 446.936 L155.39 446.936 L155.39 450.871 L141.316 450.871 L141.316 459.343 Q142.334 458.996 143.353 458.834 Q144.371 458.649 145.39 458.649 Q151.177 458.649 154.556 461.82 Q157.936 464.992 157.936 470.408 Q157.936 475.987 154.464 479.089 Q150.992 482.167 144.672 482.167 Q142.496 482.167 140.228 481.797 Q137.982 481.427 135.575 480.686 L135.575 475.987 Q137.658 477.121 139.881 477.677 Q142.103 478.232 144.58 478.232 Q148.584 478.232 150.922 476.126 Q153.26 474.019 153.26 470.408 Q153.26 466.797 150.922 464.691 Q148.584 462.584 144.58 462.584 Q142.705 462.584 140.83 463.001 Q138.978 463.417 137.033 464.297 L137.033 446.936 Z" fill="#000000" fill-rule="evenodd" fill-opacity="1" /><path clip-path="url(#clip310)" d="M90.8067 106.192 L109.163 106.192 L109.163 110.127 L95.0891 110.127 L95.0891 118.599 Q96.1076 118.252 97.1261 118.09 Q98.1447 117.905 99.1632 117.905 Q104.95 117.905 108.33 121.076 Q111.709 124.248 111.709 129.664 Q111.709 135.243 108.237 138.345 Q104.765 141.423 98.4456 141.423 Q96.2697 141.423 94.0012 141.053 Q91.7558 140.683 89.3484 139.942 L89.3484 135.243 Q91.4317 136.377 93.6539 136.933 Q95.8761 137.488 98.353 137.488 Q102.358 137.488 104.696 135.382 Q107.033 133.275 107.033 129.664 Q107.033 126.053 104.696 123.947 Q102.358 121.84 98.353 121.84 Q96.478 121.84 94.603 122.257 Q92.7512 122.674 90.8067 123.553 L90.8067 106.192 Z" fill="#000000" fill-rule="evenodd" fill-opacity="1" /><path clip-path="url(#clip310)" d="M120.922 134.873 L125.807 134.873 L125.807 140.752 L120.922 140.752 L120.922 134.873 Z" fill="#000000" fill-rule="evenodd" fill-opacity="1" /><path clip-path="url(#clip310)" d="M145.992 109.271 Q142.381 109.271 140.552 112.836 Q138.746 116.377 138.746 123.507 Q138.746 130.613 140.552 134.178 Q142.381 137.72 145.992 137.72 Q149.626 137.72 151.431 134.178 Q153.26 130.613 153.26 123.507 Q153.26 116.377 151.431 112.836 Q149.626 109.271 145.992 109.271 M145.992 105.567 Q151.802 105.567 154.857 110.174 Q157.936 114.757 157.936 123.507 Q157.936 132.234 154.857 136.84 Q151.802 141.423 145.992 141.423 Q140.181 141.423 137.103 136.84 Q134.047 132.234 134.047 123.507 Q134.047 114.757 137.103 110.174 Q140.181 105.567 145.992 105.567 Z" fill="#000000" fill-rule="evenodd" fill-opacity="1" /><path clip-path="url(#clip310)" d="M722.707 49.9314 Q722.707 58.1548 726.069 62.8538 Q729.472 67.5124 735.386 67.5124 Q741.3 67.5124 744.703 62.8538 Q748.106 58.1548 748.106 49.9314 Q748.106 41.7081 744.703 37.0496 Q741.3 32.3505 735.386 32.3505 Q729.472 32.3505 726.069 37.0496 Q722.707 41.7081 722.707 49.9314 M748.106 65.7705 Q745.756 69.8214 742.151 71.8063 Q738.586 73.7508 733.563 73.7508 Q725.34 73.7508 720.154 67.1883 Q715.01 60.6258 715.01 49.9314 Q715.01 39.2371 720.154 32.6746 Q725.34 26.1121 733.563 26.1121 Q738.586 26.1121 742.151 28.0971 Q745.756 30.0415 748.106 34.0924 L748.106 27.2059 L755.559 27.2059 L755.559 89.8329 L748.106 89.8329 L748.106 65.7705 Z" fill="#000000" fill-rule="evenodd" fill-opacity="1" /><path clip-path="url(#clip310)" d="M770.143 54.671 L770.143 27.2059 L777.596 27.2059 L777.596 54.3874 Q777.596 60.8284 780.108 64.0691 Q782.619 67.2693 787.643 67.2693 Q793.678 67.2693 797.162 63.421 Q800.686 59.5726 800.686 52.9291 L800.686 27.2059 L808.14 27.2059 L808.14 72.576 L800.686 72.576 L800.686 65.6084 Q797.972 69.7404 794.367 71.7658 Q790.802 73.7508 786.063 73.7508 Q778.244 73.7508 774.194 68.8897 Q770.143 64.0286 770.143 54.671 M788.898 26.1121 L788.898 26.1121 Z" fill="#000000" fill-rule="evenodd" fill-opacity="1" /><path clip-path="url(#clip310)" d="M844.112 49.7694 Q835.079 49.7694 831.595 51.8354 Q828.111 53.9013 828.111 58.8839 Q828.111 62.8538 830.704 65.2034 Q833.337 67.5124 837.833 67.5124 Q844.031 67.5124 847.758 63.1374 Q851.525 58.7219 851.525 51.4303 L851.525 49.7694 L844.112 49.7694 M858.979 46.6907 L858.979 72.576 L851.525 72.576 L851.525 65.6895 Q848.973 69.8214 845.165 71.8063 Q841.358 73.7508 835.848 73.7508 Q828.881 73.7508 824.749 69.8619 Q820.657 65.9325 820.657 59.3701 Q820.657 51.7138 825.762 47.825 Q830.906 43.9361 841.074 43.9361 L851.525 43.9361 L851.525 43.2069 Q851.525 38.0623 848.123 35.2672 Q844.76 32.4315 838.643 32.4315 Q834.755 32.4315 831.068 33.3632 Q827.382 34.295 823.979 36.1584 L823.979 29.2718 Q828.071 27.692 831.919 26.9223 Q835.767 26.1121 839.413 26.1121 Q849.257 26.1121 854.118 31.2163 Q858.979 36.3204 858.979 46.6907 Z" fill="#000000" fill-rule="evenodd" fill-opacity="1" /><path clip-path="url(#clip310)" d="M900.622 34.1734 Q899.366 33.4443 897.868 33.1202 Q896.409 32.7556 894.627 32.7556 Q888.308 32.7556 884.905 36.8875 Q881.542 40.9789 881.542 48.6757 L881.542 72.576 L874.048 72.576 L874.048 27.2059 L881.542 27.2059 L881.542 34.2544 Q883.892 30.1225 887.659 28.1376 Q891.427 26.1121 896.814 26.1121 Q897.584 26.1121 898.516 26.2337 Q899.447 26.3147 900.582 26.5172 L900.622 34.1734 Z" fill="#000000" fill-rule="evenodd" fill-opacity="1" /><path clip-path="url(#clip310)" d="M915.813 14.324 L915.813 27.2059 L931.166 27.2059 L931.166 32.9987 L915.813 32.9987 L915.813 57.6282 Q915.813 63.1779 917.312 64.7578 Q918.851 66.3376 923.51 66.3376 L931.166 66.3376 L931.166 72.576 L923.51 72.576 Q914.881 72.576 911.6 69.3758 Q908.319 66.1351 908.319 57.6282 L908.319 32.9987 L902.85 32.9987 L902.85 27.2059 L908.319 27.2059 L908.319 14.324 L915.813 14.324 Z" fill="#000000" fill-rule="evenodd" fill-opacity="1" /><path clip-path="url(#clip310)" d="M979.777 48.0275 L979.777 51.6733 L945.506 51.6733 Q945.992 59.3701 950.124 63.421 Q954.297 67.4314 961.71 67.4314 Q966.004 67.4314 970.014 66.3781 Q974.065 65.3249 978.035 63.2184 L978.035 70.267 Q974.025 71.9684 969.812 72.8596 Q965.599 73.7508 961.264 73.7508 Q950.408 73.7508 944.048 67.4314 Q937.729 61.1119 937.729 50.3365 Q937.729 39.1965 943.724 32.6746 Q949.76 26.1121 959.968 26.1121 Q969.123 26.1121 974.43 32.0264 Q979.777 37.9003 979.777 48.0275 M972.323 45.84 Q972.242 39.7232 968.88 36.0774 Q965.558 32.4315 960.049 32.4315 Q953.811 32.4315 950.043 35.9558 Q946.316 39.4801 945.749 45.8805 L972.323 45.84 Z" fill="#000000" fill-rule="evenodd" fill-opacity="1" /><path clip-path="url(#clip310)" d="M1018.3 34.1734 Q1017.05 33.4443 1015.55 33.1202 Q1014.09 32.7556 1012.31 32.7556 Q1005.99 32.7556 1002.58 36.8875 Q999.221 40.9789 999.221 48.6757 L999.221 72.576 L991.727 72.576 L991.727 27.2059 L999.221 27.2059 L999.221 34.2544 Q1001.57 30.1225 1005.34 28.1376 Q1009.11 26.1121 1014.49 26.1121 Q1015.26 26.1121 1016.19 26.2337 Q1017.13 26.3147 1018.26 26.5172 L1018.3 34.1734 Z" fill="#000000" fill-rule="evenodd" fill-opacity="1" /><path clip-path="url(#clip310)" d="M1026.12 9.54393 L1033.57 9.54393 L1033.57 72.576 L1026.12 72.576 L1026.12 9.54393 Z" fill="#000000" fill-rule="evenodd" fill-opacity="1" /><path clip-path="url(#clip310)" d="M1068.05 76.7889 Q1064.89 84.8907 1061.89 87.3618 Q1058.89 89.8329 1053.87 89.8329 L1047.91 89.8329 L1047.91 83.5945 L1052.29 83.5945 Q1055.37 83.5945 1057.07 82.1361 Q1058.77 80.6778 1060.84 75.2496 L1062.17 71.8468 L1043.82 27.2059 L1051.72 27.2059 L1065.9 62.6918 L1080.08 27.2059 L1087.98 27.2059 L1068.05 76.7889 Z" fill="#000000" fill-rule="evenodd" fill-opacity="1" /><path clip-path="url(#clip310)" d="M1133.14 18.8205 L1133.14 41.5461 L1143.43 41.5461 Q1149.15 41.5461 1152.26 38.5889 Q1155.38 35.6318 1155.38 30.163 Q1155.38 24.7348 1152.26 21.7777 Q1149.15 18.8205 1143.43 18.8205 L1133.14 18.8205 M1124.96 12.096 L1143.43 12.096 Q1153.6 12.096 1158.79 16.714 Q1164.01 21.2916 1164.01 30.163 Q1164.01 39.1155 1158.79 43.6931 Q1153.6 48.2706 1143.43 48.2706 L1133.14 48.2706 L1133.14 72.576 L1124.96 72.576 L1124.96 12.096 Z" fill="#000000" fill-rule="evenodd" fill-opacity="1" /><path clip-path="url(#clip310)" d="M1220.28 16.7545 L1220.28 25.383 Q1216.15 21.5346 1211.45 19.6307 Q1206.79 17.7268 1201.52 17.7268 Q1191.15 17.7268 1185.64 24.0867 Q1180.13 30.4061 1180.13 42.3968 Q1180.13 54.3469 1185.64 60.7069 Q1191.15 67.0263 1201.52 67.0263 Q1206.79 67.0263 1211.45 65.1223 Q1216.15 63.2184 1220.28 59.3701 L1220.28 67.9175 Q1215.99 70.8341 1211.16 72.2924 Q1206.38 73.7508 1201.04 73.7508 Q1187.3 73.7508 1179.41 65.3654 Q1171.51 56.9395 1171.51 42.3968 Q1171.51 27.8135 1179.41 19.4281 Q1187.3 11.0023 1201.04 11.0023 Q1206.47 11.0023 1211.25 12.4606 Q1216.07 13.8784 1220.28 16.7545 Z" fill="#000000" fill-rule="evenodd" fill-opacity="1" /><path clip-path="url(#clip310)" d="M1232.92 12.096 L1271.16 12.096 L1271.16 18.9825 L1241.1 18.9825 L1241.1 36.8875 L1269.9 36.8875 L1269.9 43.7741 L1241.1 43.7741 L1241.1 65.6895 L1271.89 65.6895 L1271.89 72.576 L1232.92 72.576 L1232.92 12.096 Z" fill="#000000" fill-rule="evenodd" fill-opacity="1" /><path clip-path="url(#clip310)" d="M1311.38 27.2059 L1318.84 27.2059 L1318.84 72.576 L1311.38 72.576 L1311.38 27.2059 M1311.38 9.54393 L1318.84 9.54393 L1318.84 18.9825 L1311.38 18.9825 L1311.38 9.54393 Z" fill="#000000" fill-rule="evenodd" fill-opacity="1" /><path clip-path="url(#clip310)" d="M1372.15 45.1919 L1372.15 72.576 L1364.69 72.576 L1364.69 45.4349 Q1364.69 38.994 1362.18 35.7938 Q1359.67 32.5936 1354.65 32.5936 Q1348.61 32.5936 1345.13 36.4419 Q1341.64 40.2903 1341.64 46.9338 L1341.64 72.576 L1334.15 72.576 L1334.15 27.2059 L1341.64 27.2059 L1341.64 34.2544 Q1344.32 30.163 1347.92 28.1376 Q1351.57 26.1121 1356.31 26.1121 Q1364.13 26.1121 1368.14 30.9732 Q1372.15 35.7938 1372.15 45.1919 Z" fill="#000000" fill-rule="evenodd" fill-opacity="1" /><path clip-path="url(#clip310)" d="M1409.98 9.54393 L1409.98 15.7418 L1402.85 15.7418 Q1398.84 15.7418 1397.26 17.3622 Q1395.72 18.9825 1395.72 23.1955 L1395.72 27.2059 L1408 27.2059 L1408 32.9987 L1395.72 32.9987 L1395.72 72.576 L1388.23 72.576 L1388.23 32.9987 L1381.1 32.9987 L1381.1 27.2059 L1388.23 27.2059 L1388.23 24.0462 Q1388.23 16.471 1391.75 13.0277 Q1395.28 9.54393 1402.93 9.54393 L1409.98 9.54393 Z" fill="#000000" fill-rule="evenodd" fill-opacity="1" /><path clip-path="url(#clip310)" d="M1416.22 9.54393 L1423.68 9.54393 L1423.68 72.576 L1416.22 72.576 L1416.22 9.54393 Z" fill="#000000" fill-rule="evenodd" fill-opacity="1" /><path clip-path="url(#clip310)" d="M1459.89 49.7694 Q1450.86 49.7694 1447.37 51.8354 Q1443.89 53.9013 1443.89 58.8839 Q1443.89 62.8538 1446.48 65.2034 Q1449.11 67.5124 1453.61 67.5124 Q1459.81 67.5124 1463.54 63.1374 Q1467.3 58.7219 1467.3 51.4303 L1467.3 49.7694 L1459.89 49.7694 M1474.76 46.6907 L1474.76 72.576 L1467.3 72.576 L1467.3 65.6895 Q1464.75 69.8214 1460.94 71.8063 Q1457.14 73.7508 1451.63 73.7508 Q1444.66 73.7508 1440.53 69.8619 Q1436.44 65.9325 1436.44 59.3701 Q1436.44 51.7138 1441.54 47.825 Q1446.68 43.9361 1456.85 43.9361 L1467.3 43.9361 L1467.3 43.2069 Q1467.3 38.0623 1463.9 35.2672 Q1460.54 32.4315 1454.42 32.4315 Q1450.53 32.4315 1446.85 33.3632 Q1443.16 34.295 1439.76 36.1584 L1439.76 29.2718 Q1443.85 27.692 1447.7 26.9223 Q1451.55 26.1121 1455.19 26.1121 Q1465.03 26.1121 1469.9 31.2163 Q1474.76 36.3204 1474.76 46.6907 Z" fill="#000000" fill-rule="evenodd" fill-opacity="1" /><path clip-path="url(#clip310)" d="M1497.48 14.324 L1497.48 27.2059 L1512.84 27.2059 L1512.84 32.9987 L1497.48 32.9987 L1497.48 57.6282 Q1497.48 63.1779 1498.98 64.7578 Q1500.52 66.3376 1505.18 66.3376 L1512.84 66.3376 L1512.84 72.576 L1505.18 72.576 Q1496.55 72.576 1493.27 69.3758 Q1489.99 66.1351 1489.99 57.6282 L1489.99 32.9987 L1484.52 32.9987 L1484.52 27.2059 L1489.99 27.2059 L1489.99 14.324 L1497.48 14.324 Z" fill="#000000" fill-rule="evenodd" fill-opacity="1" /><path clip-path="url(#clip310)" d="M1522.64 27.2059 L1530.09 27.2059 L1530.09 72.576 L1522.64 72.576 L1522.64 27.2059 M1522.64 9.54393 L1530.09 9.54393 L1530.09 18.9825 L1522.64 18.9825 L1522.64 9.54393 Z" fill="#000000" fill-rule="evenodd" fill-opacity="1" /><path clip-path="url(#clip310)" d="M1563.27 32.4315 Q1557.27 32.4315 1553.79 37.1306 Q1550.31 41.7891 1550.31 49.9314 Q1550.31 58.0738 1553.75 62.7728 Q1557.23 67.4314 1563.27 67.4314 Q1569.22 67.4314 1572.71 62.7323 Q1576.19 58.0333 1576.19 49.9314 Q1576.19 41.8701 1572.71 37.1711 Q1569.22 32.4315 1563.27 32.4315 M1563.27 26.1121 Q1572.99 26.1121 1578.54 32.4315 Q1584.09 38.7509 1584.09 49.9314 Q1584.09 61.0714 1578.54 67.4314 Q1572.99 73.7508 1563.27 73.7508 Q1553.51 73.7508 1547.96 67.4314 Q1542.45 61.0714 1542.45 49.9314 Q1542.45 38.7509 1547.96 32.4315 Q1553.51 26.1121 1563.27 26.1121 Z" fill="#000000" fill-rule="evenodd" fill-opacity="1" /><path clip-path="url(#clip310)" d="M1634.16 45.1919 L1634.16 72.576 L1626.71 72.576 L1626.71 45.4349 Q1626.71 38.994 1624.19 35.7938 Q1621.68 32.5936 1616.66 32.5936 Q1610.62 32.5936 1607.14 36.4419 Q1603.66 40.2903 1603.66 46.9338 L1603.66 72.576 L1596.16 72.576 L1596.16 27.2059 L1603.66 27.2059 L1603.66 34.2544 Q1606.33 30.163 1609.94 28.1376 Q1613.58 26.1121 1618.32 26.1121 Q1626.14 26.1121 1630.15 30.9732 Q1634.16 35.7938 1634.16 45.1919 Z" fill="#000000" fill-rule="evenodd" fill-opacity="1" /><path clip-path="url(#clip310)" d="M1701.69 34.1734 Q1700.43 33.4443 1698.93 33.1202 Q1697.48 32.7556 1695.69 32.7556 Q1689.37 32.7556 1685.97 36.8875 Q1682.61 40.9789 1682.61 48.6757 L1682.61 72.576 L1675.11 72.576 L1675.11 27.2059 L1682.61 27.2059 L1682.61 34.2544 Q1684.96 30.1225 1688.73 28.1376 Q1692.49 26.1121 1697.88 26.1121 Q1698.65 26.1121 1699.58 26.2337 Q1700.51 26.3147 1701.65 26.5172 L1701.69 34.1734 Z" fill="#000000" fill-rule="evenodd" fill-opacity="1" /><path clip-path="url(#clip310)" d="M1730.13 49.7694 Q1721.09 49.7694 1717.61 51.8354 Q1714.12 53.9013 1714.12 58.8839 Q1714.12 62.8538 1716.72 65.2034 Q1719.35 67.5124 1723.85 67.5124 Q1730.04 67.5124 1733.77 63.1374 Q1737.54 58.7219 1737.54 51.4303 L1737.54 49.7694 L1730.13 49.7694 M1744.99 46.6907 L1744.99 72.576 L1737.54 72.576 L1737.54 65.6895 Q1734.99 69.8214 1731.18 71.8063 Q1727.37 73.7508 1721.86 73.7508 Q1714.89 73.7508 1710.76 69.8619 Q1706.67 65.9325 1706.67 59.3701 Q1706.67 51.7138 1711.78 47.825 Q1716.92 43.9361 1727.09 43.9361 L1737.54 43.9361 L1737.54 43.2069 Q1737.54 38.0623 1734.14 35.2672 Q1730.77 32.4315 1724.66 32.4315 Q1720.77 32.4315 1717.08 33.3632 Q1713.4 34.295 1709.99 36.1584 L1709.99 29.2718 Q1714.08 27.692 1717.93 26.9223 Q1721.78 26.1121 1725.43 26.1121 Q1735.27 26.1121 1740.13 31.2163 Q1744.99 36.3204 1744.99 46.6907 Z" fill="#000000" fill-rule="evenodd" fill-opacity="1" /><path clip-path="url(#clip310)" d="M1767.72 14.324 L1767.72 27.2059 L1783.07 27.2059 L1783.07 32.9987 L1767.72 32.9987 L1767.72 57.6282 Q1767.72 63.1779 1769.22 64.7578 Q1770.76 66.3376 1775.42 66.3376 L1783.07 66.3376 L1783.07 72.576 L1775.42 72.576 Q1766.79 72.576 1763.51 69.3758 Q1760.22 66.1351 1760.22 57.6282 L1760.22 32.9987 L1754.76 32.9987 L1754.76 27.2059 L1760.22 27.2059 L1760.22 14.324 L1767.72 14.324 Z" fill="#000000" fill-rule="evenodd" fill-opacity="1" /><path clip-path="url(#clip310)" d="M1831.68 48.0275 L1831.68 51.6733 L1797.41 51.6733 Q1797.9 59.3701 1802.03 63.421 Q1806.2 67.4314 1813.62 67.4314 Q1817.91 67.4314 1821.92 66.3781 Q1825.97 65.3249 1829.94 63.2184 L1829.94 70.267 Q1825.93 71.9684 1821.72 72.8596 Q1817.5 73.7508 1813.17 73.7508 Q1802.31 73.7508 1795.95 67.4314 Q1789.63 61.1119 1789.63 50.3365 Q1789.63 39.1965 1795.63 32.6746 Q1801.66 26.1121 1811.87 26.1121 Q1821.03 26.1121 1826.33 32.0264 Q1831.68 37.9003 1831.68 48.0275 M1824.23 45.84 Q1824.15 39.7232 1820.79 36.0774 Q1817.46 32.4315 1811.95 32.4315 Q1805.72 32.4315 1801.95 35.9558 Q1798.22 39.4801 1797.65 45.8805 L1824.23 45.84 Z" fill="#000000" fill-rule="evenodd" fill-opacity="1" /><path clip-path="url(#clip312)" d="
M255.035 1071.79 L263.521 1021.83 L272.007 1027.11 L280.492 990.673 L288.978 985.78 L297.464 1015.77 L305.95 927.902 L314.436 957.443 L322.922 871.002 L331.408 808.854 
  L339.894 838.962 L348.38 811.737 L356.866 842.16 L365.352 857.284 L373.838 807.438 L382.324 805.857 L390.81 786.673 L399.295 801.543 L407.781 834.442 L416.267 825.641 
  L424.753 838.476 L433.239 785.85 L441.725 802.341 L450.211 813.794 L458.697 750.153 L467.183 769.171 L475.669 771.232 L484.155 767.872 L492.641 906.958 L501.127 897.058 
  L509.612 858.626 L518.098 834.587 L526.584 746.838 L535.07 768.639 L543.556 835.881 L552.042 809.065 L560.528 849.988 L569.014 794.887 L577.5 800.897 L585.986 818.542 
  L594.472 799.484 L602.958 850.098 L611.444 866.945 L619.93 817.626 L628.415 854.203 L636.901 825.777 L645.387 818.339 L653.873 910.93 L662.359 859.582 L670.845 929.043 
  L679.331 886.814 L687.817 821.008 L696.303 812.81 L704.789 657.21 L713.275 732.381 L721.761 733.965 L730.247 646.444 L738.733 803.463 L747.218 797.325 L755.704 840.698 
  L764.19 1056.39 L772.676 1256.74 L781.162 1112.53 L789.648 1147.26 L798.134 1062.4 L806.62 972.55 L815.106 937.793 L823.592 923.784 L832.078 799.13 L840.564 764.31 
  L849.05 876.567 L857.536 880.154 L866.021 894.756 L874.507 826.908 L882.993 811.422 L891.479 773.022 L899.965 807.261 L908.451 758.749 L916.937 748.976 L925.423 789.754 
  L933.909 700.795 L942.395 925.145 L950.881 923.897 L959.367 857.789 L967.853 904.625 L976.338 995.462 L984.824 988.594 L993.31 1021.48 L1001.8 1156.38 L1010.28 1036.96 
  L1018.77 914.266 L1027.25 979.114 L1035.74 966.955 L1044.23 881.674 L1052.71 885.855 L1061.2 905.201 L1069.68 813.183 L1078.17 830.976 L1086.66 929.452 L1095.14 880.171 
  L1103.63 830.511 L1112.11 856.622 L1120.6 831.579 L1129.09 810.875 L1137.57 888.773 L1146.06 997.751 L1154.54 909.002 L1163.03 886.592 L1171.51 826.118 L1180 731.742 
  L1188.49 795.002 L1196.97 822.734 L1205.46 879.536 L1213.94 835.567 L1222.43 800.316 L1230.92 812.563 L1239.4 784.705 L1247.89 800.182 L1256.37 924.348 L1264.86 887.949 
  L1273.35 840.026 L1281.83 917.118 L1290.32 805.082 L1298.8 781.555 L1307.29 963.834 L1315.78 975.234 L1324.26 981.536 L1332.75 997.334 L1341.23 913.445 L1349.72 853.673 
  L1358.21 847.521 L1366.69 844.841 L1375.18 833.486 L1383.66 820.693 L1392.15 850.785 L1400.63 846.875 L1409.12 858.128 L1417.61 842.097 L1426.09 783.997 L1434.58 838.524 
  L1443.06 804.065 L1451.55 815.494 L1460.04 858.772 L1468.52 834.297 L1477.01 814.283 L1485.49 810.839 L1493.98 814.072 L1502.47 782.708 L1510.95 832.279 L1519.44 876.17 
  L1527.92 864.975 L1536.41 886.842 L1544.9 898.838 L1553.38 878.564 L1561.87 833.635 L1570.35 832.419 L1578.84 813.185 L1587.33 778.668 L1595.81 794.408 L1604.3 784.184 
  L1612.78 747.688 L1621.27 834.71 L1629.75 824.413 L1638.24 835.115 L1646.73 848.899 L1655.21 828.04 L1663.7 936.64 L1672.18 946.406 L1680.67 941.165 L1689.16 868.239 
  L1697.64 817.161 L1706.13 800.674 L1714.61 772.051 L1723.1 933.723 L1731.59 843.986 L1740.07 859.494 L1748.56 843.894 L1757.04 764.571 L1765.53 865.396 L1774.02 787.662 
  L1782.5 853.038 L1790.99 843.933 L1799.47 768.292 L1807.96 845.255 L1816.45 841.565 L1824.93 813.51 L1833.42 891.532 L1841.9 1034.35 L1850.39 928.541 L1858.87 884.677 
  L1867.36 880.572 L1875.85 731.168 L1884.33 869.68 L1892.82 884.34 L1901.3 800.787 L1909.79 1221.6 L1918.28 1198.86 L1926.76 1093.15 L1935.25 976.714 L1943.73 326018 
  L1952.22 754.584 L1960.71 903.595 L1969.19 1000.6 L1977.68 1035.92 L1986.16 887.959 L1994.65 799.806 L2003.14 846.617 L2011.62 905.707 L2020.11 917.646 L2028.59 991.537 
  L2037.08 906.263 L2045.57 827.206 L2054.05 892.98 L2062.54 881.159 L2071.02 826.681 L2079.51 847.22 L2087.99 832.014 L2096.48 786.716 L2104.97 841.847 L2113.45 905.147 
  L2121.94 1022.04 L2130.42 919.194 L2138.91 867.607 L2147.4 863.448 L2155.88 808.477 L2164.37 824.202 L2172.85 816.95 L2181.34 765.233 L2189.83 755.141 L2198.31 884.563 
  L2206.8 849.979 L2215.28 834.758 L2223.77 822.315 L2232.26 792.444 L2240.74 829.685 L2249.23 861.069 L2257.71 901.813 L2266.2 862.211 L2274.69 854.765 L2283.17 832.253 
  L2291.66 818.233 L2291.66 757.406 L2283.17 786.249 L2274.69 793.06 L2266.2 786.847 L2257.71 854.189 L2249.23 818.622 L2240.74 774.208 L2232.26 731.88 L2223.77 745.82 
  L2215.28 726.126 L2206.8 757.95 L2198.31 775.346 L2189.83 645.582 L2181.34 664.825 L2172.85 748.14 L2164.37 725.114 L2155.88 687.385 L2147.4 751.177 L2138.91 768.692 
  L2130.42 771.031 L2121.94 843.834 L2113.45 806.447 L2104.97 758.964 L2096.48 709.173 L2087.99 768.238 L2079.51 798.76 L2071.02 758.483 L2062.54 781.795 L2054.05 767.504 
  L2045.57 728.679 L2037.08 778.132 L2028.59 855.836 L2020.11 775.686 L2011.62 771.479 L2003.14 648.611 L1994.65 488.979 L1986.16 590.985 L1977.68 696.103 L1969.19 690.441 
  L1960.71 584.871 L1952.22 384.468 L1943.73 39565.1 L1935.25 748.202 L1926.76 697.869 L1918.28 855.321 L1909.79 864.841 L1901.3 664.269 L1892.82 722.358 L1884.33 700.036 
  L1875.85 585.814 L1867.36 776.52 L1858.87 729.24 L1850.39 740.986 L1841.9 880.953 L1833.42 797.462 L1824.93 743.565 L1816.45 780.992 L1807.96 759.419 L1799.47 681.456 
  L1790.99 768.392 L1782.5 760.81 L1774.02 720.101 L1765.53 777.903 L1757.04 686.198 L1748.56 759.952 L1740.07 729.418 L1731.59 728.301 L1723.1 816.511 L1714.61 659.496 
  L1706.13 678.119 L1697.64 692.307 L1689.16 748.609 L1680.67 839.066 L1672.18 843.653 L1663.7 849.84 L1655.21 788.152 L1646.73 784.703 L1638.24 783.181 L1629.75 751.776 
  L1621.27 740.967 L1612.78 682.538 L1604.3 721.97 L1595.81 723.235 L1587.33 710.312 L1578.84 758.209 L1570.35 791.831 L1561.87 773.322 L1553.38 797.963 L1544.9 838.961 
  L1536.41 835.721 L1527.92 810.235 L1519.44 839.241 L1510.95 795.986 L1502.47 755.64 L1493.98 785.365 L1485.49 772.328 L1477.01 781.94 L1468.52 794.05 L1460.04 834.919 
  L1451.55 784.6 L1443.06 770.3 L1434.58 797.425 L1426.09 750.727 L1417.61 804.476 L1409.12 825.094 L1400.63 809.777 L1392.15 818.191 L1383.66 792.06 L1375.18 792.833 
  L1366.69 773.857 L1358.21 775.011 L1349.72 740.568 L1341.23 744.78 L1332.75 830.967 L1324.26 830.957 L1315.78 798.003 L1307.29 791.489 L1298.8 638.453 L1290.32 669.744 
  L1281.83 807.475 L1273.35 728.97 L1264.86 795.716 L1256.37 850.195 L1247.89 728.676 L1239.4 711.946 L1230.92 731.549 L1222.43 730.284 L1213.94 735.641 L1205.46 738.633 
  L1196.97 692.249 L1188.49 630.705 L1180 600.146 L1171.51 733.285 L1163.03 773.673 L1154.54 801.913 L1146.06 916.702 L1137.57 844.984 L1129.09 777.855 L1120.6 776.767 
  L1112.11 776.367 L1103.63 763.375 L1095.14 767.572 L1086.66 822.764 L1078.17 762.471 L1069.68 731.241 L1061.2 832.638 L1052.71 802.027 L1044.23 754.213 L1035.74 790.283 
  L1027.25 753.913 L1018.77 724.145 L1010.28 809.706 L1001.8 945.71 L993.31 877.997 L984.824 856.922 L976.338 888.876 L967.853 825.477 L959.367 743.09 L950.881 744.01 
  L942.395 751.033 L933.909 549.162 L925.423 506.34 L916.937 601.838 L908.451 629.973 L899.965 721.576 L891.479 695.035 L882.993 723.485 L874.507 717.312 L866.021 768.186 
  L857.536 766.814 L849.05 713.338 L840.564 585.167 L832.078 637.598 L823.592 752.106 L815.106 778.085 L806.62 761.501 L798.134 806.239 L789.648 757.129 L781.162 792.328 
  L772.676 953.918 L764.19 872.644 L755.704 615.674 L747.218 544.881 L738.733 518.675 L730.247 393.551 L721.761 492.231 L713.275 561.977 L704.789 582.607 L696.303 755.608 
  L687.817 748.669 L679.331 796.464 L670.845 865.083 L662.359 777.897 L653.873 889.117 L645.387 789.956 L636.901 785.754 L628.415 813.494 L619.93 764.659 L611.444 814.797 
  L602.958 793.451 L594.472 742.566 L585.986 771.448 L577.5 750.114 L569.014 745.298 L560.528 781.47 L552.042 726.948 L543.556 721.361 L535.07 642.779 L526.584 655.449 
  L518.098 757.597 L509.612 751.084 L501.127 814.939 L492.641 824.282 L484.155 695.977 L475.669 703.489 L467.183 704.764 L458.697 730.347 L450.211 787.126 L441.725 774.856 
  L433.239 759.333 L424.753 817.705 L416.267 799.536 L407.781 802.763 L399.295 765.653 L390.81 760.003 L382.324 774.517 L373.838 764.59 L365.352 808.617 L356.866 776.984 
  L348.38 732.79 L339.894 759.273 L331.408 705.501 L322.922 730.098 L314.436 782.637 L305.95 744.856 L297.464 754.159 L288.978 649.244 L280.492 679.918 L272.007 674.445 
  L263.521 653.428 L255.035 758.291  Z
  " fill="#808080" fill-rule="evenodd" fill-opacity="0.5"/>
<polyline clip-path="url(#clip312)" style="stroke:#009af9; stroke-linecap:butt; stroke-linejoin:round; stroke-width:4; stroke-opacity:0; fill:none" points="
  255.035,1071.79 263.521,1021.83 272.007,1027.11 280.492,990.673 288.978,985.78 297.464,1015.77 305.95,927.902 314.436,957.443 322.922,871.002 331.408,808.854 
  339.894,838.962 348.38,811.737 356.866,842.16 365.352,857.284 373.838,807.438 382.324,805.857 390.81,786.673 399.295,801.543 407.781,834.442 416.267,825.641 
  424.753,838.476 433.239,785.85 441.725,802.341 450.211,813.794 458.697,750.153 467.183,769.171 475.669,771.232 484.155,767.872 492.641,906.958 501.127,897.058 
  509.612,858.626 518.098,834.587 526.584,746.838 535.07,768.639 543.556,835.881 552.042,809.065 560.528,849.988 569.014,794.887 577.5,800.897 585.986,818.542 
  594.472,799.484 602.958,850.098 611.444,866.945 619.93,817.626 628.415,854.203 636.901,825.777 645.387,818.339 653.873,910.93 662.359,859.582 670.845,929.043 
  679.331,886.814 687.817,821.008 696.303,812.81 704.789,657.21 713.275,732.381 721.761,733.965 730.247,646.444 738.733,803.463 747.218,797.325 755.704,840.698 
  764.19,1056.39 772.676,1256.74 781.162,1112.53 789.648,1147.26 798.134,1062.4 806.62,972.55 815.106,937.793 823.592,923.784 832.078,799.13 840.564,764.31 
  849.05,876.567 857.536,880.154 866.021,894.756 874.507,826.908 882.993,811.422 891.479,773.022 899.965,807.261 908.451,758.749 916.937,748.976 925.423,789.754 
  933.909,700.795 942.395,925.145 950.881,923.897 959.367,857.789 967.853,904.625 976.338,995.462 984.824,988.594 993.31,1021.48 1001.8,1156.38 1010.28,1036.96 
  1018.77,914.266 1027.25,979.114 1035.74,966.955 1044.23,881.674 1052.71,885.855 1061.2,905.201 1069.68,813.183 1078.17,830.976 1086.66,929.452 1095.14,880.171 
  1103.63,830.511 1112.11,856.622 1120.6,831.579 1129.09,810.875 1137.57,888.773 1146.06,997.751 1154.54,909.002 1163.03,886.592 1171.51,826.118 1180,731.742 
  1188.49,795.002 1196.97,822.734 1205.46,879.536 1213.94,835.567 1222.43,800.316 1230.92,812.563 1239.4,784.705 1247.89,800.182 1256.37,924.348 1264.86,887.949 
  1273.35,840.026 1281.83,917.118 1290.32,805.082 1298.8,781.555 1307.29,963.834 1315.78,975.234 1324.26,981.536 1332.75,997.334 1341.23,913.445 1349.72,853.673 
  1358.21,847.521 1366.69,844.841 1375.18,833.486 1383.66,820.693 1392.15,850.785 1400.63,846.875 1409.12,858.128 1417.61,842.097 1426.09,783.997 1434.58,838.524 
  1443.06,804.065 1451.55,815.494 1460.04,858.772 1468.52,834.297 1477.01,814.283 1485.49,810.839 1493.98,814.072 1502.47,782.708 1510.95,832.279 1519.44,876.17 
  1527.92,864.975 1536.41,886.842 1544.9,898.838 1553.38,878.564 1561.87,833.635 1570.35,832.419 1578.84,813.185 1587.33,778.668 1595.81,794.408 1604.3,784.184 
  1612.78,747.688 1621.27,834.71 1629.75,824.413 1638.24,835.115 1646.73,848.899 1655.21,828.04 1663.7,936.64 1672.18,946.406 1680.67,941.165 1689.16,868.239 
  1697.64,817.161 1706.13,800.674 1714.61,772.051 1723.1,933.723 1731.59,843.986 1740.07,859.494 1748.56,843.894 1757.04,764.571 1765.53,865.396 1774.02,787.662 
  1782.5,853.038 1790.99,843.933 1799.47,768.292 1807.96,845.255 1816.45,841.565 1824.93,813.51 1833.42,891.532 1841.9,1034.35 1850.39,928.541 1858.87,884.677 
  1867.36,880.572 1875.85,731.168 1884.33,869.68 1892.82,884.34 1901.3,800.787 1909.79,1221.6 1918.28,1198.86 1926.76,1093.15 1935.25,976.714 1943.73,326018 
  1952.22,754.584 1960.71,903.595 1969.19,1000.6 1977.68,1035.92 1986.16,887.959 1994.65,799.806 2003.14,846.617 2011.62,905.707 2020.11,917.646 2028.59,991.537 
  2037.08,906.263 2045.57,827.206 2054.05,892.98 2062.54,881.159 2071.02,826.681 2079.51,847.22 2087.99,832.014 2096.48,786.716 2104.97,841.847 2113.45,905.147 
  2121.94,1022.04 2130.42,919.194 2138.91,867.607 2147.4,863.448 2155.88,808.477 2164.37,824.202 2172.85,816.95 2181.34,765.233 2189.83,755.141 2198.31,884.563 
  2206.8,849.979 2215.28,834.758 2223.77,822.315 2232.26,792.444 2240.74,829.685 2249.23,861.069 2257.71,901.813 2266.2,862.211 2274.69,854.765 2283.17,832.253 
  2291.66,818.233 
  "/>
<polyline clip-path="url(#clip312)" style="stroke:#ff0000; stroke-linecap:butt; stroke-linejoin:round; stroke-width:4; stroke-opacity:1; fill:none" points="
  255.035,914.968 263.521,837.321 272.007,850.343 280.492,834.847 288.978,816.563 297.464,884.21 305.95,837.202 314.436,870.893 322.922,801.085 331.408,756.059 
  339.894,798.421 348.38,772.189 356.866,809.438 365.352,832.882 373.838,786.479 382.324,789.956 390.81,773.076 399.295,783.182 407.781,819.545 416.267,812.828 
  424.753,828.131 433.239,772.882 441.725,787.504 450.211,800.077 458.697,740.498 467.183,737.129 475.669,740.242 484.155,733.317 492.641,866.347 501.127,856.492 
  509.612,804.363 518.098,795.467 526.584,701.034 535.07,706.306 543.556,780.214 552.042,768.221 560.528,815.77 569.014,770.228 577.5,775.412 585.986,795.142 
  594.472,770.971 602.958,821.87 611.444,840.905 619.93,791.197 628.415,834.021 636.901,806.006 645.387,804.053 653.873,899.973 662.359,817.102 670.845,896.275 
  679.331,841.057 687.817,784.519 696.303,784.055 704.789,619.272 713.275,648.136 721.761,609.58 730.247,517.223 738.733,661.829 747.218,671.457 755.704,728.108 
  764.19,964.567 772.676,1106.03 781.162,953.206 789.648,953.947 798.134,933.923 806.62,866.595 815.106,857.887 823.592,837.575 832.078,718.162 840.564,673.939 
  849.05,795.082 857.536,825.598 866.021,833.917 874.507,767.499 882.993,765.984 891.479,733.585 899.965,764.518 908.451,692.424 916.937,673.903 925.423,684.686 
  933.909,622.97 942.395,838.716 950.881,833.907 959.367,800.142 967.853,865.017 976.338,942.074 984.824,922.85 993.31,949.585 1001.8,1048.84 1010.28,922.495 
  1018.77,818.577 1027.25,868.463 1035.74,876.242 1044.23,817.751 1052.71,843.459 1061.2,869.023 1069.68,772.101 1078.17,796.627 1086.66,875.181 1095.14,828.241 
  1103.63,797.086 1112.11,818.631 1120.6,804.108 1129.09,794.208 1137.57,867.07 1146.06,959.054 1154.54,855.161 1163.03,830.582 1171.51,780.576 1180,663.812 
  1188.49,716.308 1196.97,761.569 1205.46,809.317 1213.94,785.825 1222.43,765.517 1230.92,771.011 1239.4,747.244 1247.89,764.926 1256.37,886.602 1264.86,841.2 
  1273.35,784.828 1281.83,862.369 1290.32,738.174 1298.8,710.408 1307.29,879.357 1315.78,885.143 1324.26,906.849 1332.75,898.623 1341.23,825.752 1349.72,796.321 
  1358.21,811.001 1366.69,809.397 1375.18,813.344 1383.66,806.175 1392.15,834.471 1400.63,828.58 1409.12,841.716 1417.61,823.121 1426.09,767.217 1434.58,817.749 
  1443.06,787.251 1451.55,799.853 1460.04,846.823 1468.52,814.683 1477.01,797.983 1485.49,791.581 1493.98,799.591 1502.47,769.345 1510.95,814.301 1519.44,858.08 
  1527.92,838.445 1536.41,860.604 1544.9,868.505 1553.38,838.336 1561.87,803.41 1570.35,812.09 1578.84,786.006 1587.33,744.707 1595.81,758.475 1604.3,752.398 
  1612.78,715.53 1621.27,787.808 1629.75,787.964 1638.24,809.215 1646.73,816.636 1655.21,808.135 1663.7,891.191 1672.18,893.305 1680.67,889.561 1689.16,807.783 
  1697.64,754.71 1706.13,738.988 1714.61,716.954 1723.1,875.7 1731.59,787.839 1740.07,794.987 1748.56,801.937 1757.04,724.544 1765.53,821.544 1774.02,753.785 
  1782.5,805.998 1790.99,806.511 1799.47,721.079 1807.96,801.904 1816.45,811.298 1824.93,778.194 1833.42,843.723 1841.9,959.389 1850.39,833.396 1858.87,806.206 
  1867.36,827.871 1875.85,658.663 1884.33,785.102 1892.82,800.158 1901.3,731.483 1909.79,1033.01 1918.28,1044.78 1926.76,899.256 1935.25,860.004 1943.73,109550 
  1952.22,570.748 1960.71,745.291 1969.19,854.018 1977.68,857.35 1986.16,749.432 1994.65,662.335 2003.14,746.007 2011.62,839.463 2020.11,846.164 2028.59,922.657 
  2037.08,841.912 2045.57,777.352 2054.05,830.45 2062.54,832.082 2071.02,792.905 2079.51,823.116 2087.99,799.958 2096.48,746.916 2104.97,800.476 2113.45,855.074 
  2121.94,942.301 2130.42,845.361 2138.91,818.06 2147.4,807.825 2155.88,746.894 2164.37,774.834 2172.85,782.835 2181.34,714.49 2189.83,701.206 2198.31,830.986 
  2206.8,803.386 2215.28,781.028 2223.77,784.568 2232.26,762.387 2240.74,802.047 2249.23,839.87 2257.71,878.128 2266.2,824.535 2274.69,823.861 2283.17,809.227 
  2291.66,788.195 
  "/>
<path clip-path="url(#clip310)" d="
M1557.62 272.585 L2280.8 272.585 L2280.8 168.905 L1557.62 168.905  Z
  " fill="#ffffff" fill-rule="evenodd" fill-opacity="1"/>
<polyline clip-path="url(#clip310)" style="stroke:#000000; stroke-linecap:butt; stroke-linejoin:round; stroke-width:4; stroke-opacity:1; fill:none" points="
  1557.62,272.585 2280.8,272.585 2280.8,168.905 1557.62,168.905 1557.62,272.585 
  "/>
<polyline clip-path="url(#clip310)" style="stroke:#ff0000; stroke-linecap:butt; stroke-linejoin:round; stroke-width:4; stroke-opacity:1; fill:none" points="
  1581.61,220.745 1725.53,220.745 
  "/>
<path clip-path="url(#clip310)" d="M1766.02 202.006 L1766.02 205.548 L1761.94 205.548 Q1759.65 205.548 1758.75 206.474 Q1757.87 207.4 1757.87 209.807 L1757.87 212.099 L1764.88 212.099 L1764.88 215.409 L1757.87 215.409 L1757.87 238.025 L1753.59 238.025 L1753.59 215.409 L1749.51 215.409 L1749.51 212.099 L1753.59 212.099 L1753.59 210.293 Q1753.59 205.965 1755.6 203.997 Q1757.62 202.006 1761.99 202.006 L1766.02 202.006 Z" fill="#000000" fill-rule="evenodd" fill-opacity="1" /><path clip-path="url(#clip310)" d="M1769.58 212.099 L1773.84 212.099 L1773.84 238.025 L1769.58 238.025 L1769.58 212.099 M1769.58 202.006 L1773.84 202.006 L1773.84 207.4 L1769.58 207.4 L1769.58 202.006 Z" fill="#000000" fill-rule="evenodd" fill-opacity="1" /><path clip-path="url(#clip310)" d="M1782.75 202.006 L1787.01 202.006 L1787.01 238.025 L1782.75 238.025 L1782.75 202.006 Z" fill="#000000" fill-rule="evenodd" fill-opacity="1" /><path clip-path="url(#clip310)" d="M1800.14 204.738 L1800.14 212.099 L1808.91 212.099 L1808.91 215.409 L1800.14 215.409 L1800.14 229.483 Q1800.14 232.654 1801 233.557 Q1801.87 234.46 1804.54 234.46 L1808.91 234.46 L1808.91 238.025 L1804.54 238.025 Q1799.61 238.025 1797.73 236.196 Q1795.86 234.344 1795.86 229.483 L1795.86 215.409 L1792.73 215.409 L1792.73 212.099 L1795.86 212.099 L1795.86 204.738 L1800.14 204.738 Z" fill="#000000" fill-rule="evenodd" fill-opacity="1" /><path clip-path="url(#clip310)" d="M1836.69 223.997 L1836.69 226.08 L1817.11 226.08 Q1817.38 230.478 1819.74 232.793 Q1822.13 235.085 1826.37 235.085 Q1828.82 235.085 1831.11 234.483 Q1833.43 233.881 1835.69 232.677 L1835.69 236.705 Q1833.4 237.677 1830.99 238.187 Q1828.59 238.696 1826.11 238.696 Q1819.91 238.696 1816.27 235.085 Q1812.66 231.474 1812.66 225.316 Q1812.66 218.951 1816.09 215.224 Q1819.54 211.474 1825.37 211.474 Q1830.6 211.474 1833.63 214.853 Q1836.69 218.21 1836.69 223.997 M1832.43 222.747 Q1832.38 219.252 1830.46 217.168 Q1828.56 215.085 1825.42 215.085 Q1821.85 215.085 1819.7 217.099 Q1817.57 219.113 1817.24 222.77 L1832.43 222.747 Z" fill="#000000" fill-rule="evenodd" fill-opacity="1" /><path clip-path="url(#clip310)" d="M1858.7 216.08 Q1857.99 215.664 1857.13 215.478 Q1856.3 215.27 1855.28 215.27 Q1851.67 215.27 1849.72 217.631 Q1847.8 219.969 1847.8 224.367 L1847.8 238.025 L1843.52 238.025 L1843.52 212.099 L1847.8 212.099 L1847.8 216.127 Q1849.14 213.766 1851.3 212.631 Q1853.45 211.474 1856.53 211.474 Q1856.97 211.474 1857.5 211.543 Q1858.03 211.59 1858.68 211.705 L1858.7 216.08 Z" fill="#000000" fill-rule="evenodd" fill-opacity="1" /><path clip-path="url(#clip310)" d="M1884.3 223.997 L1884.3 226.08 L1864.72 226.08 Q1865 230.478 1867.36 232.793 Q1869.74 235.085 1873.98 235.085 Q1876.43 235.085 1878.73 234.483 Q1881.04 233.881 1883.31 232.677 L1883.31 236.705 Q1881.02 237.677 1878.61 238.187 Q1876.2 238.696 1873.73 238.696 Q1867.52 238.696 1863.89 235.085 Q1860.28 231.474 1860.28 225.316 Q1860.28 218.951 1863.7 215.224 Q1867.15 211.474 1872.99 211.474 Q1878.22 211.474 1881.25 214.853 Q1884.3 218.21 1884.3 223.997 M1880.05 222.747 Q1880 219.252 1878.08 217.168 Q1876.18 215.085 1873.03 215.085 Q1869.47 215.085 1867.31 217.099 Q1865.18 219.113 1864.86 222.77 L1880.05 222.747 Z" fill="#000000" fill-rule="evenodd" fill-opacity="1" /><path clip-path="url(#clip310)" d="M1908.36 216.034 L1908.36 202.006 L1912.61 202.006 L1912.61 238.025 L1908.36 238.025 L1908.36 234.136 Q1907.01 236.451 1904.95 237.585 Q1902.92 238.696 1900.05 238.696 Q1895.35 238.696 1892.38 234.946 Q1889.44 231.196 1889.44 225.085 Q1889.44 218.974 1892.38 215.224 Q1895.35 211.474 1900.05 211.474 Q1902.92 211.474 1904.95 212.608 Q1907.01 213.719 1908.36 216.034 M1893.84 225.085 Q1893.84 229.784 1895.76 232.469 Q1897.71 235.131 1901.09 235.131 Q1904.47 235.131 1906.41 232.469 Q1908.36 229.784 1908.36 225.085 Q1908.36 220.386 1906.41 217.724 Q1904.47 215.039 1901.09 215.039 Q1897.71 215.039 1895.76 217.724 Q1893.84 220.386 1893.84 225.085 Z" fill="#000000" fill-rule="evenodd" fill-opacity="1" /><path clip-path="url(#clip310)" d="M1955.11 213.094 L1955.11 217.076 Q1953.31 216.08 1951.48 215.594 Q1949.67 215.085 1947.82 215.085 Q1943.68 215.085 1941.39 217.724 Q1939.1 220.34 1939.1 225.085 Q1939.1 229.83 1941.39 232.469 Q1943.68 235.085 1947.82 235.085 Q1949.67 235.085 1951.48 234.599 Q1953.31 234.089 1955.11 233.094 L1955.11 237.029 Q1953.33 237.863 1951.41 238.279 Q1949.51 238.696 1947.36 238.696 Q1941.5 238.696 1938.05 235.015 Q1934.61 231.335 1934.61 225.085 Q1934.61 218.742 1938.08 215.108 Q1941.57 211.474 1947.64 211.474 Q1949.61 211.474 1951.48 211.891 Q1953.36 212.284 1955.11 213.094 Z" fill="#000000" fill-rule="evenodd" fill-opacity="1" /><path clip-path="url(#clip310)" d="M1973.31 240.432 Q1971.5 245.062 1969.79 246.474 Q1968.08 247.886 1965.21 247.886 L1961.8 247.886 L1961.8 244.321 L1964.3 244.321 Q1966.06 244.321 1967.04 243.488 Q1968.01 242.654 1969.19 239.552 L1969.95 237.608 L1959.47 212.099 L1963.98 212.099 L1972.08 232.377 L1980.18 212.099 L1984.7 212.099 L1973.31 240.432 Z" fill="#000000" fill-rule="evenodd" fill-opacity="1" /><path clip-path="url(#clip310)" d="M2009.23 213.094 L2009.23 217.076 Q2007.43 216.08 2005.6 215.594 Q2003.79 215.085 2001.94 215.085 Q1997.8 215.085 1995.51 217.724 Q1993.22 220.34 1993.22 225.085 Q1993.22 229.83 1995.51 232.469 Q1997.8 235.085 2001.94 235.085 Q2003.79 235.085 2005.6 234.599 Q2007.43 234.089 2009.23 233.094 L2009.23 237.029 Q2007.45 237.863 2005.53 238.279 Q2003.63 238.696 2001.48 238.696 Q1995.62 238.696 1992.17 235.015 Q1988.73 231.335 1988.73 225.085 Q1988.73 218.742 1992.2 215.108 Q1995.69 211.474 2001.76 211.474 Q2003.73 211.474 2005.6 211.891 Q2007.48 212.284 2009.23 213.094 Z" fill="#000000" fill-rule="evenodd" fill-opacity="1" /><path clip-path="url(#clip310)" d="M2016.64 202.006 L2020.9 202.006 L2020.9 238.025 L2016.64 238.025 L2016.64 202.006 Z" fill="#000000" fill-rule="evenodd" fill-opacity="1" /><path clip-path="url(#clip310)" d="M2051.99 223.997 L2051.99 226.08 L2032.41 226.08 Q2032.68 230.478 2035.04 232.793 Q2037.43 235.085 2041.67 235.085 Q2044.12 235.085 2046.41 234.483 Q2048.73 233.881 2050.99 232.677 L2050.99 236.705 Q2048.7 237.677 2046.29 238.187 Q2043.89 238.696 2041.41 238.696 Q2035.21 238.696 2031.57 235.085 Q2027.96 231.474 2027.96 225.316 Q2027.96 218.951 2031.39 215.224 Q2034.84 211.474 2040.67 211.474 Q2045.9 211.474 2048.93 214.853 Q2051.99 218.21 2051.99 223.997 M2047.73 222.747 Q2047.68 219.252 2045.76 217.168 Q2043.86 215.085 2040.72 215.085 Q2037.15 215.085 2035 217.099 Q2032.87 219.113 2032.54 222.77 L2047.73 222.747 Z" fill="#000000" fill-rule="evenodd" fill-opacity="1" /><path clip-path="url(#clip310)" d="M2084.28 202.053 Q2081.18 207.377 2079.67 212.585 Q2078.17 217.793 2078.17 223.14 Q2078.17 228.488 2079.67 233.742 Q2081.2 238.974 2084.28 244.275 L2080.58 244.275 Q2077.1 238.835 2075.37 233.58 Q2073.66 228.326 2073.66 223.14 Q2073.66 217.978 2075.37 212.747 Q2077.08 207.516 2080.58 202.053 L2084.28 202.053 Z" fill="#000000" fill-rule="evenodd" fill-opacity="1" /><path clip-path="url(#clip310)" d="M2092.2 203.465 L2096.9 203.465 L2096.9 224.46 Q2096.9 230.015 2098.91 232.469 Q2100.92 234.9 2105.44 234.9 Q2109.93 234.9 2111.94 232.469 Q2113.96 230.015 2113.96 224.46 L2113.96 203.465 L2118.66 203.465 L2118.66 225.039 Q2118.66 231.798 2115.3 235.247 Q2111.97 238.696 2105.44 238.696 Q2098.89 238.696 2095.53 235.247 Q2092.2 231.798 2092.2 225.039 L2092.2 203.465 Z" fill="#000000" fill-rule="evenodd" fill-opacity="1" /><path clip-path="url(#clip310)" d="M2153.31 206.127 L2153.31 211.057 Q2150.95 208.858 2148.26 207.77 Q2145.6 206.682 2142.59 206.682 Q2136.66 206.682 2133.52 210.316 Q2130.37 213.928 2130.37 220.779 Q2130.37 227.608 2133.52 231.242 Q2136.66 234.853 2142.59 234.853 Q2145.6 234.853 2148.26 233.765 Q2150.95 232.677 2153.31 230.478 L2153.31 235.363 Q2150.85 237.029 2148.1 237.863 Q2145.37 238.696 2142.31 238.696 Q2134.47 238.696 2129.95 233.904 Q2125.44 229.09 2125.44 220.779 Q2125.44 212.446 2129.95 207.654 Q2134.47 202.84 2142.31 202.84 Q2145.41 202.84 2148.15 203.673 Q2150.9 204.483 2153.31 206.127 Z" fill="#000000" fill-rule="evenodd" fill-opacity="1" /><path clip-path="url(#clip310)" d="M2181.25 204.599 L2181.25 209.159 Q2178.59 207.886 2176.22 207.261 Q2173.86 206.636 2171.66 206.636 Q2167.84 206.636 2165.76 208.117 Q2163.7 209.599 2163.7 212.33 Q2163.7 214.622 2165.07 215.803 Q2166.46 216.96 2170.3 217.678 L2173.12 218.256 Q2178.35 219.252 2180.83 221.775 Q2183.33 224.275 2183.33 228.488 Q2183.33 233.511 2179.95 236.103 Q2176.59 238.696 2170.09 238.696 Q2167.64 238.696 2164.86 238.14 Q2162.1 237.585 2159.14 236.497 L2159.14 231.682 Q2161.99 233.279 2164.72 234.089 Q2167.45 234.9 2170.09 234.9 Q2174.09 234.9 2176.27 233.326 Q2178.45 231.752 2178.45 228.835 Q2178.45 226.289 2176.87 224.853 Q2175.32 223.418 2171.76 222.701 L2168.91 222.145 Q2163.68 221.103 2161.34 218.881 Q2159 216.659 2159 212.701 Q2159 208.117 2162.22 205.479 Q2165.46 202.84 2171.13 202.84 Q2173.56 202.84 2176.09 203.279 Q2178.61 203.719 2181.25 204.599 Z" fill="#000000" fill-rule="evenodd" fill-opacity="1" /><path clip-path="url(#clip310)" d="M2199.53 238.025 L2186.34 203.465 L2191.22 203.465 L2202.17 232.562 L2213.15 203.465 L2218.01 203.465 L2204.84 238.025 L2199.53 238.025 Z" fill="#000000" fill-rule="evenodd" fill-opacity="1" /><path clip-path="url(#clip310)" d="M2222.2 202.053 L2225.9 202.053 Q2229.37 207.516 2231.09 212.747 Q2232.82 217.978 2232.82 223.14 Q2232.82 228.326 2231.09 233.58 Q2229.37 238.835 2225.9 244.275 L2222.2 244.275 Q2225.28 238.974 2226.78 233.742 Q2228.31 228.488 2228.31 223.14 Q2228.31 217.793 2226.78 212.585 Q2225.28 207.377 2222.2 202.053 Z" fill="#000000" fill-rule="evenodd" fill-opacity="1" /></svg>
